<?xml version="1.0" encoding="UTF-8" standalone="no"?>
<!DOCTYPE svg PUBLIC "-//W3C//DTD SVG 1.1//EN"
 "http://www.w3.org/Graphics/SVG/1.1/DTD/svg11.dtd">
<!-- Generated by graphviz version 7.1.0 (20230121.1956)
 -->
<!-- Title: egraph Pages: 1 -->
<svg width="1200pt" height="337pt"
 viewBox="0.00 0.00 1200.00 337.00" xmlns="http://www.w3.org/2000/svg" xmlns:xlink="http://www.w3.org/1999/xlink">
<g id="graph0" class="graph" transform="scale(1 1) rotate(0) translate(4 333)">
<title>egraph</title>
<polygon fill="white" stroke="none" points="-4,4 -4,-333 1196,-333 1196,4 -4,4"/>
<g id="clust1" class="cluster">
<title>cluster_3</title>
<polygon fill="none" stroke="black" stroke-dasharray="1,5" points="232,-182 232,-234 948,-234 948,-182 232,-182"/>
</g>
<g id="clust2" class="cluster">
<title>cluster_4</title>
<polygon fill="none" stroke="black" stroke-dasharray="1,5" points="41,-95 41,-147 337,-147 337,-95 41,-95"/>
</g>
<g id="clust4" class="cluster">
<title>cluster_12</title>
<polygon fill="none" stroke="black" stroke-dasharray="1,5" points="657,-95 657,-147 787,-147 787,-95 657,-95"/>
</g>
<g id="clust3" class="cluster">
<title>cluster_8</title>
<polygon fill="none" stroke="black" stroke-dasharray="1,5" points="497,-8 497,-60 757,-60 757,-8 497,-8"/>
</g>
<g id="clust7" class="cluster">
<title>cluster_24</title>
<polygon fill="none" stroke="black" stroke-dasharray="1,5" points="912,-269 912,-321 1184,-321 1184,-269 912,-269"/>
</g>
<g id="clust6" class="cluster">
<title>cluster_23</title>
<polygon fill="none" stroke="black" stroke-dasharray="1,5" points="526,-269 526,-321 748,-321 748,-269 526,-269"/>
</g>
<g id="clust5" class="cluster">
<title>cluster_21</title>
<polygon fill="none" stroke="black" stroke-dasharray="1,5" points="8,-182 8,-234 224,-234 224,-182 8,-182"/>
</g>
<!-- 3.0 -->
<g id="node1" class="node">
<title>3.0</title>
<ellipse fill="none" stroke="black" cx="637" cy="-208" rx="27" ry="18"/>
<text text-anchor="middle" x="637" y="-204.3" font-family="Times New Roman,serif" font-size="14.00">l_4</text>
</g>
<!-- 3.1 -->
<g id="node2" class="node">
<title>3.1</title>
<ellipse fill="none" stroke="black" cx="807" cy="-208" rx="27" ry="18"/>
<text text-anchor="middle" x="807" y="-204.3" font-family="Times New Roman,serif" font-size="14.00">p_9</text>
</g>
<!-- 3.2 -->
<g id="node3" class="node">
<title>3.2</title>
<ellipse fill="none" stroke="black" cx="722" cy="-208" rx="40.09" ry="18"/>
<text text-anchor="middle" x="722" y="-204.3" font-family="Times New Roman,serif" font-size="14.00">?l_4(12)</text>
</g>
<!-- 12.0 -->
<g id="node8" class="node">
<title>12.0</title>
<ellipse fill="none" stroke="black" cx="722" cy="-121" rx="56.59" ry="18"/>
<text text-anchor="middle" x="722" y="-117.3" font-family="Times New Roman,serif" font-size="14.00">?join(3, 3, 8)</text>
</g>
<!-- 3.2&#45;&gt;12.0 -->
<g id="edge1" class="edge">
<title>3.2&#45;&gt;12.0</title>
<path fill="none" stroke="black" d="M722,-189.8C722,-178.58 722,-163.67 722,-150.69"/>
<polygon fill="black" stroke="black" points="725.5,-158.51 722,-148.51 718.5,-158.51 725.5,-158.51"/>
<text text-anchor="middle" x="725.5" y="-160.8" font-family="Times New Roman,serif" font-size="14.00">0</text>
</g>
<!-- 3.3 -->
<g id="node4" class="node">
<title>3.3</title>
<ellipse fill="none" stroke="black" cx="896" cy="-208" rx="43.59" ry="18"/>
<text text-anchor="middle" x="896" y="-204.3" font-family="Times New Roman,serif" font-size="14.00">?p_9(12)</text>
</g>
<!-- 3.3&#45;&gt;12.0 -->
<g id="edge2" class="edge">
<title>3.3&#45;&gt;12.0</title>
<path fill="none" stroke="black" d="M868.81,-193.72C845.99,-182.57 812.53,-166.22 783.31,-151.95"/>
<polygon fill="black" stroke="black" points="785.06,-148.91 774.53,-147.66 781.98,-155.2 785.06,-148.91"/>
<text text-anchor="middle" x="822.5" y="-160.8" font-family="Times New Roman,serif" font-size="14.00">0</text>
</g>
<!-- 3.4 -->
<g id="node5" class="node">
<title>3.4</title>
<ellipse fill="none" stroke="black" cx="544" cy="-208" rx="48.19" ry="18"/>
<text text-anchor="middle" x="544" y="-204.3" font-family="Times New Roman,serif" font-size="14.00">?stash_3()</text>
</g>
<!-- 3.5 -->
<g id="node6" class="node">
<title>3.5</title>
<ellipse fill="none" stroke="black" cx="430" cy="-208" rx="48.19" ry="18"/>
<text text-anchor="middle" x="430" y="-204.3" font-family="Times New Roman,serif" font-size="14.00">?stash_3()</text>
</g>
<!-- 3.6 -->
<g id="node7" class="node">
<title>3.6</title>
<ellipse fill="none" stroke="black" cx="302" cy="-208" rx="61.99" ry="18"/>
<text text-anchor="middle" x="302" y="-204.3" font-family="Times New Roman,serif" font-size="14.00">fd_stash_3(4)</text>
</g>
<!-- 4.0 -->
<g id="node9" class="node">
<title>4.0</title>
<ellipse fill="none" stroke="black" cx="302" cy="-121" rx="27" ry="18"/>
<text text-anchor="middle" x="302" y="-117.3" font-family="Times New Roman,serif" font-size="14.00">3.f2</text>
</g>
<!-- 3.6&#45;&gt;4.0 -->
<g id="edge3" class="edge">
<title>3.6&#45;&gt;4.0</title>
<path fill="none" stroke="black" d="M302,-189.8C302,-178.58 302,-163.67 302,-150.69"/>
<polygon fill="black" stroke="black" points="305.5,-158.51 302,-148.51 298.5,-158.51 305.5,-158.51"/>
<text text-anchor="middle" x="305.5" y="-160.8" font-family="Times New Roman,serif" font-size="14.00">0</text>
</g>
<!-- 12.0&#45;&gt;3.0 -->
<g id="edge8" class="edge">
<title>12.0&#45;&gt;3.0</title>
<path fill="none" stroke="black" d="M705.47,-138.53C695.34,-148.66 682.01,-161.99 669.81,-174.19"/>
<polygon fill="black" stroke="black" points="667.66,-171.39 663.07,-180.93 672.61,-176.34 667.66,-171.39"/>
<text text-anchor="middle" x="687.5" y="-160.8" font-family="Times New Roman,serif" font-size="14.00">0</text>
</g>
<!-- 12.0&#45;&gt;3.0 -->
<g id="edge9" class="edge">
<title>12.0&#45;&gt;3.0</title>
<path fill="none" stroke="black" d="M690.57,-136.36C680.9,-141.84 670.77,-148.78 663,-157 656.81,-163.55 651.7,-171.86 647.71,-179.82"/>
<polygon fill="black" stroke="black" points="650.45,-170.84 646.9,-180.82 655.9,-175.23 650.45,-170.84"/>
<text text-anchor="middle" x="666.5" y="-160.8" font-family="Times New Roman,serif" font-size="14.00">1</text>
</g>
<!-- 8.0 -->
<g id="node12" class="node">
<title>8.0</title>
<ellipse fill="none" stroke="black" cx="722" cy="-34" rx="27" ry="18"/>
<text text-anchor="middle" x="722" y="-30.3" font-family="Times New Roman,serif" font-size="14.00">l_14</text>
</g>
<!-- 12.0&#45;&gt;8.0 -->
<g id="edge10" class="edge">
<title>12.0&#45;&gt;8.0</title>
<path fill="none" stroke="black" d="M722,-102.8C722,-91.58 722,-76.67 722,-63.69"/>
<polygon fill="black" stroke="black" points="725.5,-71.51 722,-61.51 718.5,-71.51 725.5,-71.51"/>
<text text-anchor="middle" x="725.5" y="-73.8" font-family="Times New Roman,serif" font-size="14.00">2</text>
</g>
<!-- 4.0&#45;&gt;3.0 -->
<g id="edge4" class="edge">
<title>4.0&#45;&gt;3.0</title>
<path fill="none" stroke="black" d="M329.07,-123.74C380.94,-127.83 497.43,-140.68 590.62,-177.73"/>
<polygon fill="black" stroke="black" points="589.02,-180.86 599.6,-181.42 591.68,-174.38 589.02,-180.86"/>
<text text-anchor="middle" x="573.5" y="-160.8" font-family="Times New Roman,serif" font-size="14.00">0</text>
</g>
<!-- 4.1 -->
<g id="node10" class="node">
<title>4.1</title>
<ellipse fill="none" stroke="black" cx="230" cy="-121" rx="27" ry="18"/>
<text text-anchor="middle" x="230" y="-117.3" font-family="Times New Roman,serif" font-size="14.00">8.f0</text>
</g>
<!-- 4.1&#45;&gt;8.0 -->
<g id="edge5" class="edge">
<title>4.1&#45;&gt;8.0</title>
<path fill="none" stroke="black" d="M246.19,-106.07C252.06,-101.78 258.98,-97.52 266,-95 307.4,-80.12 602.8,-76.29 674.96,-62.75"/>
<polygon fill="black" stroke="black" points="675.67,-66.17 684.53,-60.37 673.98,-59.38 675.67,-66.17"/>
<text text-anchor="middle" x="606.5" y="-73.8" font-family="Times New Roman,serif" font-size="14.00">0</text>
</g>
<!-- 4.2 -->
<g id="node11" class="node">
<title>4.2</title>
<ellipse fill="none" stroke="black" cx="117" cy="-121" rx="68.49" ry="18"/>
<text text-anchor="middle" x="117" y="-117.3" font-family="Times New Roman,serif" font-size="14.00">?group_key(21)</text>
</g>
<!-- 21.0 -->
<g id="node13" class="node">
<title>21.0</title>
<ellipse fill="none" stroke="black" cx="51" cy="-208" rx="35.19" ry="18"/>
<text text-anchor="middle" x="51" y="-204.3" font-family="Times New Roman,serif" font-size="14.00">root_0</text>
</g>
<!-- 4.2&#45;&gt;21.0 -->
<g id="edge6" class="edge">
<title>4.2&#45;&gt;21.0</title>
<path fill="none" stroke="black" d="M103.74,-139.08C96.2,-148.79 86.48,-161.3 77.45,-172.93"/>
<polygon fill="black" stroke="black" points="74.71,-170.76 71.34,-180.81 80.24,-175.06 74.71,-170.76"/>
<text text-anchor="middle" x="91.5" y="-160.8" font-family="Times New Roman,serif" font-size="14.00">0</text>
</g>
<!-- 8.1 -->
<g id="node14" class="node">
<title>8.1</title>
<ellipse fill="none" stroke="black" cx="645" cy="-34" rx="32.49" ry="18"/>
<text text-anchor="middle" x="645" y="-30.3" font-family="Times New Roman,serif" font-size="14.00">?job()</text>
</g>
<!-- 8.2 -->
<g id="node15" class="node">
<title>8.2</title>
<ellipse fill="none" stroke="black" cx="550" cy="-34" rx="44.69" ry="18"/>
<text text-anchor="middle" x="550" y="-30.3" font-family="Times New Roman,serif" font-size="14.00">?l_14(12)</text>
</g>
<!-- 8.2&#45;&gt;12.0 -->
<g id="edge7" class="edge">
<title>8.2&#45;&gt;12.0</title>
<path fill="none" stroke="black" d="M577.48,-48.58C599.95,-59.68 632.55,-75.8 661.11,-89.91"/>
<polygon fill="black" stroke="black" points="659.55,-93.04 670.06,-94.33 662.65,-86.76 659.55,-93.04"/>
<text text-anchor="middle" x="649.5" y="-73.8" font-family="Times New Roman,serif" font-size="14.00">0</text>
</g>
<!-- 21.1 -->
<g id="node16" class="node">
<title>21.1</title>
<ellipse fill="none" stroke="black" cx="160" cy="-208" rx="55.79" ry="18"/>
<text text-anchor="middle" x="160" y="-204.3" font-family="Times New Roman,serif" font-size="14.00">group(12, 4)</text>
</g>
<!-- 21.1&#45;&gt;12.0 -->
<g id="edge11" class="edge">
<title>21.1&#45;&gt;12.0</title>
<path fill="none" stroke="black" d="M193.07,-193.07C204.02,-188.94 216.38,-184.78 228,-182 265,-173.15 275.23,-176.53 313,-172 429.08,-158.08 563.63,-141.55 645.77,-131.42"/>
<polygon fill="black" stroke="black" points="646,-134.92 655.5,-130.22 645.15,-127.97 646,-134.92"/>
<text text-anchor="middle" x="439.5" y="-160.8" font-family="Times New Roman,serif" font-size="14.00">0</text>
</g>
<!-- 21.1&#45;&gt;4.0 -->
<g id="edge12" class="edge">
<title>21.1&#45;&gt;4.0</title>
<path fill="none" stroke="black" d="M187.86,-192.14C206.86,-181.82 232.77,-167.37 256.39,-152.95"/>
<polygon fill="black" stroke="black" points="258.05,-156.04 264.71,-147.8 254.37,-150.08 258.05,-156.04"/>
<text text-anchor="middle" x="253.5" y="-160.8" font-family="Times New Roman,serif" font-size="14.00">1</text>
</g>
<!-- 23.0 -->
<g id="node17" class="node">
<title>23.0</title>
<ellipse fill="none" stroke="black" cx="637" cy="-295" rx="27" ry="18"/>
<text text-anchor="middle" x="637" y="-291.3" font-family="Times New Roman,serif" font-size="14.00">3.f1</text>
</g>
<!-- 23.0&#45;&gt;3.0 -->
<g id="edge13" class="edge">
<title>23.0&#45;&gt;3.0</title>
<path fill="none" stroke="black" d="M637,-276.8C637,-265.58 637,-250.67 637,-237.69"/>
<polygon fill="black" stroke="black" points="640.5,-245.51 637,-235.51 633.5,-245.51 640.5,-245.51"/>
<text text-anchor="middle" x="640.5" y="-247.8" font-family="Times New Roman,serif" font-size="14.00">0</text>
</g>
<!-- 23.1 -->
<g id="node18" class="node">
<title>23.1</title>
<ellipse fill="none" stroke="black" cx="711" cy="-295" rx="29.5" ry="18"/>
<text text-anchor="middle" x="711" y="-291.3" font-family="Times New Roman,serif" font-size="14.00">12.f0</text>
</g>
<!-- 23.1&#45;&gt;12.0 -->
<g id="edge14" class="edge">
<title>23.1&#45;&gt;12.0</title>
<path fill="none" stroke="black" d="M740.22,-291.14C798.53,-284.78 925.98,-267.29 952,-234 966.23,-215.79 966.13,-200.29 952,-182 933.11,-157.56 857.66,-141.18 798.26,-131.8"/>
<polygon fill="black" stroke="black" points="798.91,-128.36 788.49,-130.3 797.85,-135.28 798.91,-128.36"/>
<text text-anchor="middle" x="965.5" y="-204.3" font-family="Times New Roman,serif" font-size="14.00">0</text>
</g>
<!-- 23.2 -->
<g id="node19" class="node">
<title>23.2</title>
<ellipse fill="none" stroke="black" cx="563" cy="-295" rx="29.5" ry="18"/>
<text text-anchor="middle" x="563" y="-291.3" font-family="Times New Roman,serif" font-size="14.00">21.f0</text>
</g>
<!-- 23.2&#45;&gt;21.0 -->
<g id="edge15" class="edge">
<title>23.2&#45;&gt;21.0</title>
<path fill="none" stroke="black" d="M533.09,-294.13C459.27,-293.63 262.99,-287.32 105.77,-237.5"/>
<polygon fill="black" stroke="black" points="107.03,-234.23 96.44,-234.47 104.87,-240.89 107.03,-234.23"/>
<text text-anchor="middle" x="185.5" y="-247.8" font-family="Times New Roman,serif" font-size="14.00">0</text>
</g>
<!-- 24.0 -->
<g id="node20" class="node">
<title>24.0</title>
<ellipse fill="none" stroke="black" cx="1025" cy="-295" rx="29.5" ry="18"/>
<text text-anchor="middle" x="1025" y="-291.3" font-family="Times New Roman,serif" font-size="14.00">12.f1</text>
</g>
<!-- 24.0&#45;&gt;12.0 -->
<g id="edge16" class="edge">
<title>24.0&#45;&gt;12.0</title>
<path fill="none" stroke="black" d="M1020.12,-276.93C1012.81,-253.56 997.23,-211.2 973,-182 960.79,-167.29 955.68,-164.28 938,-157 890.6,-137.49 833.15,-128.82 789.42,-124.99"/>
<polygon fill="black" stroke="black" points="799.01,-124.87 788.42,-124.61 796.53,-131.42 799.01,-124.87"/>
<text text-anchor="middle" x="1006.5" y="-204.3" font-family="Times New Roman,serif" font-size="14.00">0</text>
</g>
<!-- 24.1 -->
<g id="node21" class="node">
<title>24.1</title>
<ellipse fill="none" stroke="black" cx="949" cy="-295" rx="29.5" ry="18"/>
<text text-anchor="middle" x="949" y="-291.3" font-family="Times New Roman,serif" font-size="14.00">21.f1</text>
</g>
<!-- 24.1&#45;&gt;21.0 -->
<g id="edge17" class="edge">
<title>24.1&#45;&gt;21.0</title>
<path fill="none" stroke="black" d="M921.37,-288.01C868.57,-276.89 749.55,-253.3 648,-244 589.79,-238.67 195.62,-249.12 106.27,-236.18"/>
<polygon fill="black" stroke="black" points="106.97,-232.75 96.49,-234.29 105.64,-239.63 106.97,-232.75"/>
<text text-anchor="middle" x="767.5" y="-247.8" font-family="Times New Roman,serif" font-size="14.00">0</text>
</g>
<!-- 24.2 -->
<g id="node22" class="node">
<title>24.2</title>
<ellipse fill="none" stroke="black" cx="1124" cy="-295" rx="51.99" ry="18"/>
<text text-anchor="middle" x="1124" y="-291.3" font-family="Times New Roman,serif" font-size="14.00">?SumT(12)</text>
</g>
<!-- 24.2&#45;&gt;12.0 -->
<g id="edge18" class="edge">
<title>24.2&#45;&gt;12.0</title>
<path fill="none" stroke="black" d="M1110.84,-277.49C1091.51,-254.02 1053.45,-210.7 1014,-182 993.91,-167.38 987.71,-164.43 964,-157 906.31,-138.92 837.92,-130.13 788.58,-125.88"/>
<polygon fill="black" stroke="black" points="798.72,-127.68 788.31,-125.73 795.23,-133.75 798.72,-127.68"/>
<text text-anchor="middle" x="1073.5" y="-204.3" font-family="Times New Roman,serif" font-size="14.00">0</text>
</g>
</g>
</svg>
