<?xml version="1.0" encoding="UTF-8" standalone="no"?>
<!DOCTYPE svg PUBLIC "-//W3C//DTD SVG 1.1//EN"
 "http://www.w3.org/Graphics/SVG/1.1/DTD/svg11.dtd">
<!-- Generated by graphviz version 2.44.1 (20200629.0846)
 -->
<!-- Title: egraph Pages: 1 -->
<svg width="1200pt" height="337pt"
 viewBox="0.00 0.00 1200.00 337.00" xmlns="http://www.w3.org/2000/svg" xmlns:xlink="http://www.w3.org/1999/xlink">
<g id="graph0" class="graph" transform="scale(1 1) rotate(0) translate(4 333)">
<title>egraph</title>
<polygon fill="white" stroke="transparent" points="-4,4 -4,-333 1196,-333 1196,4 -4,4"/>
<g id="clust1" class="cluster">
<title>cluster_3</title>
<polygon fill="none" stroke="black" stroke-dasharray="1,5" points="232,-182 232,-234 948,-234 948,-182 232,-182"/>
</g>
<g id="clust5" class="cluster">
<title>cluster_21</title>
<polygon fill="none" stroke="black" stroke-dasharray="1,5" points="8,-182 8,-234 224,-234 224,-182 8,-182"/>
</g>
<g id="clust6" class="cluster">
<title>cluster_23</title>
<polygon fill="none" stroke="black" stroke-dasharray="1,5" points="526,-269 526,-321 748,-321 748,-269 526,-269"/>
</g>
<g id="clust3" class="cluster">
<title>cluster_8</title>
<polygon fill="none" stroke="black" stroke-dasharray="1,5" points="497,-8 497,-60 757,-60 757,-8 497,-8"/>
</g>
<g id="clust7" class="cluster">
<title>cluster_24</title>
<polygon fill="none" stroke="black" stroke-dasharray="1,5" points="912,-269 912,-321 1184,-321 1184,-269 912,-269"/>
</g>
<g id="clust4" class="cluster">
<title>cluster_12</title>
<polygon fill="none" stroke="black" stroke-dasharray="1,5" points="657,-95 657,-147 787,-147 787,-95 657,-95"/>
</g>
<g id="clust2" class="cluster">
<title>cluster_4</title>
<polygon fill="none" stroke="black" stroke-dasharray="1,5" points="41,-95 41,-147 337,-147 337,-95 41,-95"/>
</g>
<!-- 3.0 -->
<g id="node1" class="node">
<title>3.0</title>
<ellipse fill="none" stroke="black" cx="637" cy="-208" rx="27" ry="18"/>
<text text-anchor="middle" x="637" y="-204.3" font-family="Times New Roman,serif" font-size="14.00">l_4</text>
</g>
<!-- 3.1 -->
<g id="node2" class="node">
<title>3.1</title>
<ellipse fill="none" stroke="black" cx="807" cy="-208" rx="27" ry="18"/>
<text text-anchor="middle" x="807" y="-204.3" font-family="Times New Roman,serif" font-size="14.00">p_9</text>
</g>
<!-- 3.2 -->
<g id="node3" class="node">
<title>3.2</title>
<ellipse fill="none" stroke="black" cx="722" cy="-208" rx="40.09" ry="18"/>
<text text-anchor="middle" x="722" y="-204.3" font-family="Times New Roman,serif" font-size="14.00">?l_4(12)</text>
</g>
<!-- 12.0 -->
<g id="node8" class="node">
<title>12.0</title>
<ellipse fill="none" stroke="black" cx="722" cy="-121" rx="56.59" ry="18"/>
<text text-anchor="middle" x="722" y="-117.3" font-family="Times New Roman,serif" font-size="14.00">?join(3, 3, 8)</text>
</g>
<!-- 3.2&#45;&gt;12.0 -->
<g id="edge1" class="edge">
<title>3.2&#45;&gt;12.0</title>
<path fill="none" stroke="black" d="M722,-189.8C722,-178.16 722,-162.55 722,-149.24"/>
<polygon fill="black" stroke="black" points="725.5,-157 722,-147 718.5,-157 725.5,-157"/>
<text text-anchor="middle" x="725.5" y="-160.8" font-family="Times New Roman,serif" font-size="14.00">0</text>
</g>
<!-- 3.3 -->
<g id="node4" class="node">
<title>3.3</title>
<ellipse fill="none" stroke="black" cx="896" cy="-208" rx="43.59" ry="18"/>
<text text-anchor="middle" x="896" y="-204.3" font-family="Times New Roman,serif" font-size="14.00">?p_9(12)</text>
</g>
<!-- 3.3&#45;&gt;12.0 -->
<g id="edge2" class="edge">
<title>3.3&#45;&gt;12.0</title>
<path fill="none" stroke="black" d="M868.81,-193.72C845.69,-182.42 811.64,-165.79 782.16,-151.39"/>
<polygon fill="black" stroke="black" points="783.69,-148.24 773.17,-147 780.62,-154.53 783.69,-148.24"/>
<text text-anchor="middle" x="822.5" y="-160.8" font-family="Times New Roman,serif" font-size="14.00">0</text>
</g>
<!-- 3.4 -->
<g id="node5" class="node">
<title>3.4</title>
<ellipse fill="none" stroke="black" cx="544" cy="-208" rx="48.19" ry="18"/>
<text text-anchor="middle" x="544" y="-204.3" font-family="Times New Roman,serif" font-size="14.00">?stash_3()</text>
</g>
<!-- 3.5 -->
<g id="node6" class="node">
<title>3.5</title>
<ellipse fill="none" stroke="black" cx="430" cy="-208" rx="48.19" ry="18"/>
<text text-anchor="middle" x="430" y="-204.3" font-family="Times New Roman,serif" font-size="14.00">?stash_3()</text>
</g>
<!-- 3.6 -->
<g id="node7" class="node">
<title>3.6</title>
<ellipse fill="none" stroke="black" cx="302" cy="-208" rx="61.99" ry="18"/>
<text text-anchor="middle" x="302" y="-204.3" font-family="Times New Roman,serif" font-size="14.00">fd_stash_3(4)</text>
</g>
<!-- 4.0 -->
<g id="node9" class="node">
<title>4.0</title>
<ellipse fill="none" stroke="black" cx="302" cy="-121" rx="27" ry="18"/>
<text text-anchor="middle" x="302" y="-117.3" font-family="Times New Roman,serif" font-size="14.00">3.f2</text>
</g>
<!-- 3.6&#45;&gt;4.0 -->
<g id="edge3" class="edge">
<title>3.6&#45;&gt;4.0</title>
<path fill="none" stroke="black" d="M302,-189.8C302,-178.16 302,-162.55 302,-149.24"/>
<polygon fill="black" stroke="black" points="305.5,-157 302,-147 298.5,-157 305.5,-157"/>
<text text-anchor="middle" x="305.5" y="-160.8" font-family="Times New Roman,serif" font-size="14.00">0</text>
</g>
<!-- 12.0&#45;&gt;3.0 -->
<g id="edge8" class="edge">
<title>12.0&#45;&gt;3.0</title>
<path fill="none" stroke="black" d="M705.47,-138.53C695.14,-148.86 681.5,-162.5 669.11,-174.89"/>
<polygon fill="black" stroke="black" points="666.6,-172.45 662,-182 671.55,-177.4 666.6,-172.45"/>
<text text-anchor="middle" x="687.5" y="-160.8" font-family="Times New Roman,serif" font-size="14.00">0</text>
</g>
<!-- 12.0&#45;&gt;3.0 -->
<g id="edge9" class="edge">
<title>12.0&#45;&gt;3.0</title>
<path fill="none" stroke="black" d="M690.87,-136.19C681.12,-141.69 670.86,-148.69 663,-157 656.53,-163.85 651.24,-172.62 647.17,-180.9"/>
<polygon fill="black" stroke="black" points="651.03,-172.7 645.95,-182 655.72,-177.9 651.03,-172.7"/>
<text text-anchor="middle" x="666.5" y="-160.8" font-family="Times New Roman,serif" font-size="14.00">1</text>
</g>
<!-- 8.0 -->
<g id="node12" class="node">
<title>8.0</title>
<ellipse fill="none" stroke="black" cx="722" cy="-34" rx="27" ry="18"/>
<text text-anchor="middle" x="722" y="-30.3" font-family="Times New Roman,serif" font-size="14.00">l_14</text>
</g>
<!-- 12.0&#45;&gt;8.0 -->
<g id="edge10" class="edge">
<title>12.0&#45;&gt;8.0</title>
<path fill="none" stroke="black" d="M722,-102.8C722,-91.16 722,-75.55 722,-62.24"/>
<polygon fill="black" stroke="black" points="725.5,-70 722,-60 718.5,-70 725.5,-70"/>
<text text-anchor="middle" x="725.5" y="-73.8" font-family="Times New Roman,serif" font-size="14.00">2</text>
</g>
<!-- 4.0&#45;&gt;3.0 -->
<g id="edge4" class="edge">
<title>4.0&#45;&gt;3.0</title>
<path fill="none" stroke="black" d="M329.07,-123.74C381.15,-127.85 498.37,-140.79 591.75,-178.18"/>
<polygon fill="black" stroke="black" points="590.42,-181.42 601,-182 593.09,-174.95 590.42,-181.42"/>
<text text-anchor="middle" x="573.5" y="-160.8" font-family="Times New Roman,serif" font-size="14.00">0</text>
</g>
<!-- 4.1 -->
<g id="node10" class="node">
<title>4.1</title>
<ellipse fill="none" stroke="black" cx="230" cy="-121" rx="27" ry="18"/>
<text text-anchor="middle" x="230" y="-117.3" font-family="Times New Roman,serif" font-size="14.00">8.f0</text>
</g>
<!-- 4.1&#45;&gt;8.0 -->
<g id="edge5" class="edge">
<title>4.1&#45;&gt;8.0</title>
<path fill="none" stroke="black" d="M245.83,-106.33C251.78,-101.95 258.84,-97.57 266,-95 307.66,-80.03 606.5,-76.24 676.28,-62.49"/>
<polygon fill="black" stroke="black" points="677.18,-65.87 686,-60 675.44,-59.09 677.18,-65.87"/>
<text text-anchor="middle" x="606.5" y="-73.8" font-family="Times New Roman,serif" font-size="14.00">0</text>
</g>
<!-- 4.2 -->
<g id="node11" class="node">
<title>4.2</title>
<ellipse fill="none" stroke="black" cx="117" cy="-121" rx="68.49" ry="18"/>
<text text-anchor="middle" x="117" y="-117.3" font-family="Times New Roman,serif" font-size="14.00">?group_key(21)</text>
</g>
<!-- 21.0 -->
<g id="node13" class="node">
<title>21.0</title>
<ellipse fill="none" stroke="black" cx="51" cy="-208" rx="35.19" ry="18"/>
<text text-anchor="middle" x="51" y="-204.3" font-family="Times New Roman,serif" font-size="14.00">root_0</text>
</g>
<!-- 4.2&#45;&gt;21.0 -->
<g id="edge6" class="edge">
<title>4.2&#45;&gt;21.0</title>
<path fill="none" stroke="black" d="M103.96,-138.79C96.18,-148.81 86.03,-161.88 76.7,-173.9"/>
<polygon fill="black" stroke="black" points="73.78,-171.96 70.41,-182 79.31,-176.25 73.78,-171.96"/>
<text text-anchor="middle" x="91.5" y="-160.8" font-family="Times New Roman,serif" font-size="14.00">0</text>
</g>
<!-- 8.1 -->
<g id="node14" class="node">
<title>8.1</title>
<ellipse fill="none" stroke="black" cx="645" cy="-34" rx="32.49" ry="18"/>
<text text-anchor="middle" x="645" y="-30.3" font-family="Times New Roman,serif" font-size="14.00">?job()</text>
</g>
<!-- 8.2 -->
<g id="node15" class="node">
<title>8.2</title>
<ellipse fill="none" stroke="black" cx="550" cy="-34" rx="44.69" ry="18"/>
<text text-anchor="middle" x="550" y="-30.3" font-family="Times New Roman,serif" font-size="14.00">?l_14(12)</text>
</g>
<!-- 8.2&#45;&gt;12.0 -->
<g id="edge7" class="edge">
<title>8.2&#45;&gt;12.0</title>
<path fill="none" stroke="black" d="M577.05,-48.37C599.81,-59.61 633.18,-76.11 662.17,-90.43"/>
<polygon fill="black" stroke="black" points="660.9,-93.71 671.41,-95 664,-87.43 660.9,-93.71"/>
<text text-anchor="middle" x="649.5" y="-73.8" font-family="Times New Roman,serif" font-size="14.00">0</text>
</g>
<!-- 21.1 -->
<g id="node16" class="node">
<title>21.1</title>
<ellipse fill="none" stroke="black" cx="160" cy="-208" rx="55.79" ry="18"/>
<text text-anchor="middle" x="160" y="-204.3" font-family="Times New Roman,serif" font-size="14.00">group(12, 4)</text>
</g>
<!-- 21.1&#45;&gt;12.0 -->
<g id="edge11" class="edge">
<title>21.1&#45;&gt;12.0</title>
<path fill="none" stroke="black" d="M192.72,-193.2C203.76,-189.03 216.26,-184.81 228,-182 265,-173.15 275.23,-176.53 313,-172 429.67,-158.01 565.01,-141.38 647.02,-131.27"/>
<polygon fill="black" stroke="black" points="647.51,-134.74 657,-130.04 646.65,-127.79 647.51,-134.74"/>
<text text-anchor="middle" x="439.5" y="-160.8" font-family="Times New Roman,serif" font-size="14.00">0</text>
</g>
<!-- 21.1&#45;&gt;4.0 -->
<g id="edge12" class="edge">
<title>21.1&#45;&gt;4.0</title>
<path fill="none" stroke="black" d="M187.86,-192.14C207.12,-181.68 233.46,-166.99 257.33,-152.37"/>
<polygon fill="black" stroke="black" points="259.35,-155.24 266,-147 255.66,-149.29 259.35,-155.24"/>
<text text-anchor="middle" x="253.5" y="-160.8" font-family="Times New Roman,serif" font-size="14.00">1</text>
</g>
<!-- 23.0 -->
<g id="node17" class="node">
<title>23.0</title>
<ellipse fill="none" stroke="black" cx="637" cy="-295" rx="27" ry="18"/>
<text text-anchor="middle" x="637" y="-291.3" font-family="Times New Roman,serif" font-size="14.00">3.f1</text>
</g>
<!-- 23.0&#45;&gt;3.0 -->
<g id="edge13" class="edge">
<title>23.0&#45;&gt;3.0</title>
<path fill="none" stroke="black" d="M637,-276.8C637,-265.16 637,-249.55 637,-236.24"/>
<polygon fill="black" stroke="black" points="640.5,-244 637,-234 633.5,-244 640.5,-244"/>
<text text-anchor="middle" x="640.5" y="-247.8" font-family="Times New Roman,serif" font-size="14.00">0</text>
</g>
<!-- 23.1 -->
<g id="node18" class="node">
<title>23.1</title>
<ellipse fill="none" stroke="black" cx="711" cy="-295" rx="29.5" ry="18"/>
<text text-anchor="middle" x="711" y="-291.3" font-family="Times New Roman,serif" font-size="14.00">12.f0</text>
</g>
<!-- 23.1&#45;&gt;12.0 -->
<g id="edge14" class="edge">
<title>23.1&#45;&gt;12.0</title>
<path fill="none" stroke="black" d="M739.78,-291.19C797.88,-284.87 925.91,-267.38 952,-234 966.23,-215.79 966.13,-200.29 952,-182 933,-157.4 856.72,-140.98 797.15,-131.63"/>
<polygon fill="black" stroke="black" points="797.41,-128.12 787,-130.07 796.35,-135.04 797.41,-128.12"/>
<text text-anchor="middle" x="965.5" y="-204.3" font-family="Times New Roman,serif" font-size="14.00">0</text>
</g>
<!-- 23.2 -->
<g id="node19" class="node">
<title>23.2</title>
<ellipse fill="none" stroke="black" cx="563" cy="-295" rx="29.5" ry="18"/>
<text text-anchor="middle" x="563" y="-291.3" font-family="Times New Roman,serif" font-size="14.00">21.f0</text>
</g>
<!-- 23.2&#45;&gt;21.0 -->
<g id="edge15" class="edge">
<title>23.2&#45;&gt;21.0</title>
<path fill="none" stroke="black" d="M533.64,-294.13C460.11,-293.67 262.61,-287.42 104.86,-237.21"/>
<polygon fill="black" stroke="black" points="105.59,-233.77 95,-234 103.42,-240.43 105.59,-233.77"/>
<text text-anchor="middle" x="185.5" y="-247.8" font-family="Times New Roman,serif" font-size="14.00">0</text>
</g>
<!-- 24.0 -->
<g id="node20" class="node">
<title>24.0</title>
<ellipse fill="none" stroke="black" cx="1025" cy="-295" rx="29.5" ry="18"/>
<text text-anchor="middle" x="1025" y="-291.3" font-family="Times New Roman,serif" font-size="14.00">12.f1</text>
</g>
<!-- 24.0&#45;&gt;12.0 -->
<g id="edge16" class="edge">
<title>24.0&#45;&gt;12.0</title>
<path fill="none" stroke="black" d="M1020.12,-276.93C1012.81,-253.56 997.23,-211.2 973,-182 960.79,-167.29 955.68,-164.28 938,-157 890.09,-137.28 831.93,-128.64 788.03,-124.87"/>
<polygon fill="black" stroke="black" points="797.05,-127.41 787,-124.07 792.78,-132.95 797.05,-127.41"/>
<text text-anchor="middle" x="1006.5" y="-204.3" font-family="Times New Roman,serif" font-size="14.00">0</text>
</g>
<!-- 24.1 -->
<g id="node21" class="node">
<title>24.1</title>
<ellipse fill="none" stroke="black" cx="949" cy="-295" rx="29.5" ry="18"/>
<text text-anchor="middle" x="949" y="-291.3" font-family="Times New Roman,serif" font-size="14.00">21.f1</text>
</g>
<!-- 24.1&#45;&gt;21.0 -->
<g id="edge17" class="edge">
<title>24.1&#45;&gt;21.0</title>
<path fill="none" stroke="black" d="M921.78,-288.1C869.19,-277.01 749.81,-253.33 648,-244 589.49,-238.64 191.57,-249.23 104.91,-235.98"/>
<polygon fill="black" stroke="black" points="105.49,-232.53 95,-234 104.12,-239.39 105.49,-232.53"/>
<text text-anchor="middle" x="767.5" y="-247.8" font-family="Times New Roman,serif" font-size="14.00">0</text>
</g>
<!-- 24.2 -->
<g id="node22" class="node">
<title>24.2</title>
<ellipse fill="none" stroke="black" cx="1124" cy="-295" rx="51.99" ry="18"/>
<text text-anchor="middle" x="1124" y="-291.3" font-family="Times New Roman,serif" font-size="14.00">?SumT(12)</text>
</g>
<!-- 24.2&#45;&gt;12.0 -->
<g id="edge18" class="edge">
<title>24.2&#45;&gt;12.0</title>
<path fill="none" stroke="black" d="M1110.84,-277.49C1091.51,-254.02 1053.45,-210.7 1014,-182 993.91,-167.38 987.71,-164.43 964,-157 905.95,-138.81 837.06,-130.02 787.65,-125.8"/>
<polygon fill="black" stroke="black" points="795.92,-130.69 787,-124.97 790.4,-135 795.92,-130.69"/>
<text text-anchor="middle" x="1073.5" y="-204.3" font-family="Times New Roman,serif" font-size="14.00">0</text>
</g>
</g>
</svg>
