<?xml version="1.0" encoding="UTF-8" standalone="no"?>
<!DOCTYPE svg PUBLIC "-//W3C//DTD SVG 1.1//EN"
 "http://www.w3.org/Graphics/SVG/1.1/DTD/svg11.dtd">
<!-- Generated by graphviz version 7.1.0 (20230121.1956)
 -->
<!-- Pages: 1 -->
<svg width="1314pt" height="1060pt"
 viewBox="0.00 0.00 1314.00 1060.00" xmlns="http://www.w3.org/2000/svg" xmlns:xlink="http://www.w3.org/1999/xlink">
<g id="graph0" class="graph" transform="scale(1 1) rotate(0) translate(4 1056)">
<polygon fill="white" stroke="none" points="-4,4 -4,-1056 1310,-1056 1310,4 -4,4"/>
<!-- 0 -->
<g id="node1" class="node">
<title>0</title>
<ellipse fill="none" stroke="black" cx="420" cy="-1034" rx="31.7" ry="18"/>
<text text-anchor="middle" x="420" y="-1030.3" font-family="Times New Roman,serif" font-size="14.00">l_7.f0</text>
</g>
<!-- 1 -->
<g id="node2" class="node">
<title>1</title>
<ellipse fill="none" stroke="black" cx="259" cy="-947" rx="31.7" ry="18"/>
<text text-anchor="middle" x="259" y="-943.3" font-family="Times New Roman,serif" font-size="14.00">l_4.f2</text>
</g>
<!-- 0&#45;&gt;1 -->
<g id="edge1" class="edge">
<title>0&#45;&gt;1</title>
<path fill="none" stroke="black" d="M388.31,-1031.33C342.89,-1028.2 262.77,-1019.68 245,-998 239.51,-991.31 240.11,-982.61 242.99,-974.35"/>
<polygon fill="black" stroke="black" points="246.15,-975.87 247.15,-965.32 239.79,-972.94 246.15,-975.87"/>
<text text-anchor="middle" x="293.5" y="-986.8" font-family="Times New Roman,serif" font-size="14.00">WHERE{=} (&#45;&gt;)</text>
</g>
<!-- 7 -->
<g id="node8" class="node">
<title>7</title>
<ellipse fill="none" stroke="black" cx="476" cy="-425" rx="55.79" ry="18"/>
<text text-anchor="middle" x="476" y="-421.3" font-family="Times New Roman,serif" font-size="14.00">l_7.$inner.f0</text>
</g>
<!-- 0&#45;&gt;7 -->
<g id="edge2" class="edge">
<title>0&#45;&gt;7</title>
<path fill="none" stroke="black" d="M440.29,-1020.06C448.08,-1014.18 456.43,-1006.61 462,-998 474.54,-978.63 476,-971.08 476,-948 476,-948 476,-948 476,-511 476,-492.12 476,-470.88 476,-454.35"/>
<polygon fill="black" stroke="black" points="479.5,-454.77 476,-444.77 472.5,-454.77 479.5,-454.77"/>
<text text-anchor="middle" x="550" y="-725.8" font-family="Times New Roman,serif" font-size="14.00">GroupBy{inner loop} (&#45;&gt;)</text>
</g>
<!-- 1&#45;&gt;0 -->
<g id="edge3" class="edge">
<title>1&#45;&gt;0</title>
<path fill="none" stroke="black" d="M284.97,-957.57C301.62,-964.04 323.49,-973.17 342,-983 352.77,-988.73 354.74,-991.39 365,-998 373.05,-1003.19 381.78,-1008.77 389.87,-1013.91"/>
<polygon fill="black" stroke="black" points="387.73,-1016.7 398.05,-1019.11 391.49,-1010.8 387.73,-1016.7"/>
<text text-anchor="middle" x="413.5" y="-986.8" font-family="Times New Roman,serif" font-size="14.00">WHERE{=} (&lt;&#45;)</text>
</g>
<!-- 2 -->
<g id="node3" class="node">
<title>2</title>
<ellipse fill="none" stroke="black" cx="182" cy="-860" rx="27" ry="18"/>
<text text-anchor="middle" x="182" y="-856.3" font-family="Times New Roman,serif" font-size="14.00">l_4</text>
</g>
<!-- 1&#45;&gt;2 -->
<g id="edge4" class="edge">
<title>1&#45;&gt;2</title>
<path fill="none" stroke="black" d="M228.37,-941.83C209.54,-937.51 186.83,-928.75 175,-911 170.62,-904.43 170.19,-896.3 171.47,-888.52"/>
<polygon fill="black" stroke="black" points="174.8,-889.61 173.92,-879.05 168.02,-887.85 174.8,-889.61"/>
<text text-anchor="middle" x="207" y="-899.8" font-family="Times New Roman,serif" font-size="14.00">Table{FD}</text>
</g>
<!-- 2&#45;&gt;1 -->
<g id="edge5" class="edge">
<title>2&#45;&gt;1</title>
<path fill="none" stroke="black" d="M204.43,-870.54C216.05,-876.43 229.72,-884.99 239,-896 244.34,-902.34 248.38,-910.29 251.38,-917.97"/>
<polygon fill="black" stroke="black" points="248.05,-919.04 254.58,-927.38 254.68,-916.79 248.05,-919.04"/>
<text text-anchor="middle" x="284" y="-899.8" font-family="Times New Roman,serif" font-size="14.00">Table{field}</text>
</g>
<!-- 3 -->
<g id="node4" class="node">
<title>3</title>
<ellipse fill="none" stroke="black" cx="39" cy="-773" rx="31.7" ry="18"/>
<text text-anchor="middle" x="39" y="-769.3" font-family="Times New Roman,serif" font-size="14.00">l_4.f1</text>
</g>
<!-- 2&#45;&gt;3 -->
<g id="edge6" class="edge">
<title>2&#45;&gt;3</title>
<path fill="none" stroke="black" d="M154.72,-859.09C125.63,-857.67 80.1,-850.88 53,-824 47.23,-818.28 43.79,-810.4 41.75,-802.59"/>
<polygon fill="black" stroke="black" points="45.23,-802.12 39.94,-792.94 38.35,-803.41 45.23,-802.12"/>
<text text-anchor="middle" x="88" y="-812.8" font-family="Times New Roman,serif" font-size="14.00">Table{field}</text>
</g>
<!-- 4 -->
<g id="node5" class="node">
<title>4</title>
<ellipse fill="none" stroke="black" cx="126" cy="-773" rx="31.7" ry="18"/>
<text text-anchor="middle" x="126" y="-769.3" font-family="Times New Roman,serif" font-size="14.00">l_4.f0</text>
</g>
<!-- 2&#45;&gt;4 -->
<g id="edge7" class="edge">
<title>2&#45;&gt;4</title>
<path fill="none" stroke="black" d="M160.19,-849.1C149.93,-843.28 138.53,-834.91 132,-824 128.21,-817.68 126.27,-810.1 125.36,-802.77"/>
<polygon fill="black" stroke="black" points="128.86,-802.61 124.77,-792.84 121.87,-803.03 128.86,-802.61"/>
<text text-anchor="middle" x="167" y="-812.8" font-family="Times New Roman,serif" font-size="14.00">Table{field}</text>
</g>
<!-- 28 -->
<g id="node29" class="node">
<title>28</title>
<ellipse fill="none" stroke="black" cx="230" cy="-773" rx="53.89" ry="18"/>
<text text-anchor="middle" x="230" y="-769.3" font-family="Times New Roman,serif" font-size="14.00">FROM (&#45;&gt;)</text>
</g>
<!-- 2&#45;&gt;28 -->
<g id="edge8" class="edge">
<title>2&#45;&gt;28</title>
<path fill="none" stroke="black" d="M193.52,-843.3C197.66,-837.38 202.23,-830.51 206,-824 210.14,-816.83 214.21,-808.84 217.79,-801.38"/>
<polygon fill="black" stroke="black" points="220.93,-802.91 221.98,-792.37 214.59,-799.96 220.93,-802.91"/>
</g>
<!-- 26 -->
<g id="node27" class="node">
<title>26</title>
<ellipse fill="none" stroke="black" cx="39" cy="-686" rx="38.99" ry="18"/>
<text text-anchor="middle" x="39" y="-682.3" font-family="Times New Roman,serif" font-size="14.00">Root.f0</text>
</g>
<!-- 3&#45;&gt;26 -->
<g id="edge9" class="edge">
<title>3&#45;&gt;26</title>
<path fill="none" stroke="black" d="M39,-754.8C39,-743.58 39,-728.67 39,-715.69"/>
<polygon fill="black" stroke="black" points="42.5,-715.98 39,-705.98 35.5,-715.98 42.5,-715.98"/>
<text text-anchor="middle" x="88" y="-725.8" font-family="Times New Roman,serif" font-size="14.00">SELECT{l_4.f1}</text>
</g>
<!-- 5 -->
<g id="node6" class="node">
<title>5</title>
<ellipse fill="none" stroke="black" cx="851" cy="-1034" rx="31.7" ry="18"/>
<text text-anchor="middle" x="851" y="-1030.3" font-family="Times New Roman,serif" font-size="14.00">l_7.f1</text>
</g>
<!-- 6 -->
<g id="node7" class="node">
<title>6</title>
<ellipse fill="none" stroke="black" cx="791" cy="-947" rx="55.79" ry="18"/>
<text text-anchor="middle" x="791" y="-943.3" font-family="Times New Roman,serif" font-size="14.00">l_7.$inner.f1</text>
</g>
<!-- 5&#45;&gt;6 -->
<g id="edge10" class="edge">
<title>5&#45;&gt;6</title>
<path fill="none" stroke="black" d="M819.47,-1031.14C775.22,-1027.78 698.13,-1019.02 681,-998 663.12,-976.06 694.63,-963.36 728.44,-956.25"/>
<polygon fill="black" stroke="black" points="728.79,-959.75 737.95,-954.42 727.47,-952.88 728.79,-959.75"/>
<text text-anchor="middle" x="755" y="-986.8" font-family="Times New Roman,serif" font-size="14.00">GroupBy{inner loop} (&#45;&gt;)</text>
</g>
<!-- 25 -->
<g id="node26" class="node">
<title>25</title>
<ellipse fill="none" stroke="black" cx="1022" cy="-947" rx="38.99" ry="18"/>
<text text-anchor="middle" x="1022" y="-943.3" font-family="Times New Roman,serif" font-size="14.00">Root.f1</text>
</g>
<!-- 5&#45;&gt;25 -->
<g id="edge11" class="edge">
<title>5&#45;&gt;25</title>
<path fill="none" stroke="black" d="M882.77,-1031.61C912.91,-1028.87 958.19,-1020.9 990,-998 998.2,-992.09 1004.82,-983.37 1009.86,-974.86"/>
<polygon fill="black" stroke="black" points="1012.9,-976.59 1014.51,-966.11 1006.72,-973.3 1012.9,-976.59"/>
<text text-anchor="middle" x="1053" y="-986.8" font-family="Times New Roman,serif" font-size="14.00">SELECT{l_7.f1}</text>
</g>
<!-- 6&#45;&gt;5 -->
<g id="edge12" class="edge">
<title>6&#45;&gt;5</title>
<path fill="none" stroke="black" d="M811.5,-964.07C817.67,-969.6 824.09,-976.14 829,-983 833.81,-989.74 837.9,-997.7 841.2,-1005.26"/>
<polygon fill="black" stroke="black" points="837.93,-1006.5 844.9,-1014.47 844.42,-1003.89 837.93,-1006.5"/>
<text text-anchor="middle" x="912" y="-986.8" font-family="Times New Roman,serif" font-size="14.00">GroupBy{inner loop} (&lt;&#45;)</text>
</g>
<!-- 7&#45;&gt;0 -->
<g id="edge13" class="edge">
<title>7&#45;&gt;0</title>
<path fill="none" stroke="black" d="M529.63,-430.45C579.78,-437.89 647,-457.79 647,-511 647,-948 647,-948 647,-948 647,-987.2 526.76,-1014.36 461.3,-1026.25"/>
<polygon fill="black" stroke="black" points="460.87,-1022.77 451.63,-1027.96 462.09,-1029.66 460.87,-1022.77"/>
<text text-anchor="middle" x="721" y="-725.8" font-family="Times New Roman,serif" font-size="14.00">GroupBy{inner loop} (&lt;&#45;)</text>
</g>
<!-- 8 -->
<g id="node9" class="node">
<title>8</title>
<ellipse fill="none" stroke="black" cx="998" cy="-599" rx="34.39" ry="18"/>
<text text-anchor="middle" x="998" y="-595.3" font-family="Times New Roman,serif" font-size="14.00">p_9.f2</text>
</g>
<!-- 9 -->
<g id="node10" class="node">
<title>9</title>
<ellipse fill="none" stroke="black" cx="1089" cy="-164" rx="36.29" ry="18"/>
<text text-anchor="middle" x="1089" y="-160.3" font-family="Times New Roman,serif" font-size="14.00">l_14.f0</text>
</g>
<!-- 8&#45;&gt;9 -->
<g id="edge14" class="edge">
<title>8&#45;&gt;9</title>
<path fill="none" stroke="black" d="M1024.32,-586.94C1051.19,-573.67 1089,-548.67 1089,-513 1089,-513 1089,-513 1089,-250 1089,-231.12 1089,-209.88 1089,-193.35"/>
<polygon fill="black" stroke="black" points="1092.5,-193.77 1089,-183.77 1085.5,-193.77 1092.5,-193.77"/>
<text text-anchor="middle" x="1137.5" y="-377.8" font-family="Times New Roman,serif" font-size="14.00">WHERE{=} (&#45;&gt;)</text>
</g>
<!-- 10 -->
<g id="node11" class="node">
<title>10</title>
<ellipse fill="none" stroke="black" cx="911" cy="-512" rx="27" ry="18"/>
<text text-anchor="middle" x="911" y="-508.3" font-family="Times New Roman,serif" font-size="14.00">p_9</text>
</g>
<!-- 8&#45;&gt;10 -->
<g id="edge15" class="edge">
<title>8&#45;&gt;10</title>
<path fill="none" stroke="black" d="M965.06,-593.56C946.2,-589.16 923.96,-580.4 912,-563 907.74,-556.8 906.25,-549.07 906.14,-541.56"/>
<polygon fill="black" stroke="black" points="909.62,-541.9 906.8,-531.69 902.64,-541.43 909.62,-541.9"/>
<text text-anchor="middle" x="944" y="-551.8" font-family="Times New Roman,serif" font-size="14.00">Table{FD}</text>
</g>
<!-- 20 -->
<g id="node21" class="node">
<title>20</title>
<ellipse fill="none" stroke="black" cx="329" cy="-512" rx="57.69" ry="18"/>
<text text-anchor="middle" x="329" y="-508.3" font-family="Times New Roman,serif" font-size="14.00">v_proj_15.f0</text>
</g>
<!-- 8&#45;&gt;20 -->
<g id="edge16" class="edge">
<title>8&#45;&gt;20</title>
<path fill="none" stroke="black" d="M964.82,-593.78C859.68,-580.43 532.59,-538.87 393.09,-521.14"/>
<polygon fill="black" stroke="black" points="393.64,-517.69 383.28,-519.9 392.76,-524.63 393.64,-517.69"/>
<text text-anchor="middle" x="755.5" y="-551.8" font-family="Times New Roman,serif" font-size="14.00">SELECT{p_9.f2}</text>
</g>
<!-- 9&#45;&gt;8 -->
<g id="edge17" class="edge">
<title>9&#45;&gt;8</title>
<path fill="none" stroke="black" d="M1121.15,-172.83C1156.7,-183.63 1209,-206.85 1209,-250 1209,-513 1209,-513 1209,-513 1209,-583.49 1106.42,-597.01 1044.31,-598.73"/>
<polygon fill="black" stroke="black" points="1044.29,-595.23 1034.35,-598.9 1044.41,-602.23 1044.29,-595.23"/>
<text text-anchor="middle" x="1257.5" y="-377.8" font-family="Times New Roman,serif" font-size="14.00">WHERE{=} (&lt;&#45;)</text>
</g>
<!-- 10&#45;&gt;8 -->
<g id="edge18" class="edge">
<title>10&#45;&gt;8</title>
<path fill="none" stroke="black" d="M934.52,-521.19C948.11,-526.93 964.69,-535.76 976,-548 981.86,-554.35 986.33,-562.5 989.67,-570.38"/>
<polygon fill="black" stroke="black" points="986.36,-571.54 993.12,-579.7 992.92,-569.11 986.36,-571.54"/>
<text text-anchor="middle" x="1021" y="-551.8" font-family="Times New Roman,serif" font-size="14.00">Table{field}</text>
</g>
<!-- 11 -->
<g id="node12" class="node">
<title>11</title>
<ellipse fill="none" stroke="black" cx="917" cy="-425" rx="34.39" ry="18"/>
<text text-anchor="middle" x="917" y="-421.3" font-family="Times New Roman,serif" font-size="14.00">p_9.f1</text>
</g>
<!-- 10&#45;&gt;11 -->
<g id="edge19" class="edge">
<title>10&#45;&gt;11</title>
<path fill="none" stroke="black" d="M910.82,-493.85C910.86,-484.19 911.11,-471.9 912,-461 912.16,-458.93 912.37,-456.8 912.61,-454.66"/>
<polygon fill="black" stroke="black" points="916.06,-455.27 913.89,-444.9 909.12,-454.36 916.06,-455.27"/>
<text text-anchor="middle" x="947" y="-464.8" font-family="Times New Roman,serif" font-size="14.00">Table{field}</text>
</g>
<!-- 12 -->
<g id="node13" class="node">
<title>12</title>
<ellipse fill="none" stroke="black" cx="1004" cy="-425" rx="34.39" ry="18"/>
<text text-anchor="middle" x="1004" y="-421.3" font-family="Times New Roman,serif" font-size="14.00">p_9.f0</text>
</g>
<!-- 10&#45;&gt;12 -->
<g id="edge20" class="edge">
<title>10&#45;&gt;12</title>
<path fill="none" stroke="black" d="M935.33,-503.79C950.41,-498.27 969.26,-489.3 982,-476 987.97,-469.76 992.48,-461.63 995.81,-453.75"/>
<polygon fill="black" stroke="black" points="999.07,-455 999.24,-444.41 992.5,-452.59 999.07,-455"/>
<text text-anchor="middle" x="1027" y="-464.8" font-family="Times New Roman,serif" font-size="14.00">Table{field}</text>
</g>
<!-- 22 -->
<g id="node23" class="node">
<title>22</title>
<ellipse fill="none" stroke="black" cx="811" cy="-425" rx="53.89" ry="18"/>
<text text-anchor="middle" x="811" y="-421.3" font-family="Times New Roman,serif" font-size="14.00">FROM (&#45;&gt;)</text>
</g>
<!-- 10&#45;&gt;22 -->
<g id="edge21" class="edge">
<title>10&#45;&gt;22</title>
<path fill="none" stroke="black" d="M894.93,-497.34C879.75,-484.44 856.66,-464.81 838.54,-449.41"/>
<polygon fill="black" stroke="black" points="841.14,-447.03 831.25,-443.22 836.61,-452.36 841.14,-447.03"/>
</g>
<!-- 13 -->
<g id="node14" class="node">
<title>13</title>
<ellipse fill="none" stroke="black" cx="818" cy="-164" rx="36.29" ry="18"/>
<text text-anchor="middle" x="818" y="-160.3" font-family="Times New Roman,serif" font-size="14.00">l_14.f4</text>
</g>
<!-- 14 -->
<g id="node15" class="node">
<title>14</title>
<ellipse fill="none" stroke="black" cx="818" cy="-251" rx="27" ry="18"/>
<text text-anchor="middle" x="818" y="-247.3" font-family="Times New Roman,serif" font-size="14.00">l_14</text>
</g>
<!-- 14&#45;&gt;9 -->
<g id="edge22" class="edge">
<title>14&#45;&gt;9</title>
<path fill="none" stroke="black" d="M844.46,-245.97C875.91,-240.76 929.71,-230.45 974,-215 988.45,-209.96 991.04,-206.28 1005,-200 1019.81,-193.34 1036.27,-186.38 1050.67,-180.44"/>
<polygon fill="black" stroke="black" points="1051.88,-183.73 1059.81,-176.7 1049.23,-177.25 1051.88,-183.73"/>
<text text-anchor="middle" x="1040" y="-203.8" font-family="Times New Roman,serif" font-size="14.00">Table{field}</text>
</g>
<!-- 14&#45;&gt;13 -->
<g id="edge23" class="edge">
<title>14&#45;&gt;13</title>
<path fill="none" stroke="black" d="M818,-232.8C818,-221.58 818,-206.67 818,-193.69"/>
<polygon fill="black" stroke="black" points="821.5,-193.98 818,-183.98 814.5,-193.98 821.5,-193.98"/>
<text text-anchor="middle" x="853" y="-203.8" font-family="Times New Roman,serif" font-size="14.00">Table{field}</text>
</g>
<!-- 15 -->
<g id="node16" class="node">
<title>15</title>
<ellipse fill="none" stroke="black" cx="911" cy="-164" rx="36.29" ry="18"/>
<text text-anchor="middle" x="911" y="-160.3" font-family="Times New Roman,serif" font-size="14.00">l_14.f3</text>
</g>
<!-- 14&#45;&gt;15 -->
<g id="edge24" class="edge">
<title>14&#45;&gt;15</title>
<path fill="none" stroke="black" d="M842.33,-242.79C857.41,-237.27 876.26,-228.3 889,-215 894.97,-208.76 899.48,-200.63 902.81,-192.75"/>
<polygon fill="black" stroke="black" points="906.07,-194 906.24,-183.41 899.5,-191.59 906.07,-194"/>
<text text-anchor="middle" x="935" y="-203.8" font-family="Times New Roman,serif" font-size="14.00">Table{field}</text>
</g>
<!-- 16 -->
<g id="node17" class="node">
<title>16</title>
<ellipse fill="none" stroke="black" cx="633" cy="-164" rx="36.29" ry="18"/>
<text text-anchor="middle" x="633" y="-160.3" font-family="Times New Roman,serif" font-size="14.00">l_14.f2</text>
</g>
<!-- 14&#45;&gt;16 -->
<g id="edge25" class="edge">
<title>14&#45;&gt;16</title>
<path fill="none" stroke="black" d="M790.53,-250.42C756.82,-249.58 699.42,-243.59 661,-215 653.25,-209.24 647.36,-200.66 643.02,-192.23"/>
<polygon fill="black" stroke="black" points="646.26,-190.91 638.96,-183.23 639.88,-193.79 646.26,-190.91"/>
<text text-anchor="middle" x="696" y="-203.8" font-family="Times New Roman,serif" font-size="14.00">Table{field}</text>
</g>
<!-- 17 -->
<g id="node18" class="node">
<title>17</title>
<ellipse fill="none" stroke="black" cx="724" cy="-164" rx="36.29" ry="18"/>
<text text-anchor="middle" x="724" y="-160.3" font-family="Times New Roman,serif" font-size="14.00">l_14.f1</text>
</g>
<!-- 14&#45;&gt;17 -->
<g id="edge26" class="edge">
<title>14&#45;&gt;17</title>
<path fill="none" stroke="black" d="M793.19,-243.42C777.3,-238.08 757.24,-229.08 744,-215 738.16,-208.8 733.95,-200.68 730.94,-192.79"/>
<polygon fill="black" stroke="black" points="734.33,-191.9 727.91,-183.47 727.67,-194.06 734.33,-191.9"/>
<text text-anchor="middle" x="779" y="-203.8" font-family="Times New Roman,serif" font-size="14.00">Table{field}</text>
</g>
<!-- 14&#45;&gt;22 -->
<g id="edge27" class="edge">
<title>14&#45;&gt;22</title>
<path fill="none" stroke="black" d="M822.09,-268.99C823.28,-274.68 824.41,-281.08 825,-287 828.71,-324.51 822.54,-367.78 817.25,-395.49"/>
<polygon fill="black" stroke="black" points="813.84,-394.72 815.29,-405.22 820.7,-396.11 813.84,-394.72"/>
</g>
<!-- 18 -->
<g id="node19" class="node">
<title>18</title>
<ellipse fill="none" stroke="black" cx="678" cy="-91" rx="113.18" ry="18"/>
<text text-anchor="middle" x="678" y="-87.3" font-family="Times New Roman,serif" font-size="14.00">SELECT{l_14.f1 * l_14.f2}</text>
</g>
<!-- 16&#45;&gt;18 -->
<g id="edge28" class="edge">
<title>16&#45;&gt;18</title>
<path fill="none" stroke="black" d="M643.43,-146.53C648.62,-138.35 655.02,-128.25 660.9,-118.98"/>
<polygon fill="black" stroke="black" points="663.78,-120.97 666.18,-110.65 657.87,-117.22 663.78,-120.97"/>
</g>
<!-- 17&#45;&gt;18 -->
<g id="edge29" class="edge">
<title>17&#45;&gt;18</title>
<path fill="none" stroke="black" d="M713.33,-146.53C708.03,-138.35 701.48,-128.25 695.48,-118.98"/>
<polygon fill="black" stroke="black" points="698.45,-117.13 690.07,-110.64 692.57,-120.93 698.45,-117.13"/>
</g>
<!-- 19 -->
<g id="node20" class="node">
<title>19</title>
<ellipse fill="none" stroke="black" cx="678" cy="-18" rx="57.69" ry="18"/>
<text text-anchor="middle" x="678" y="-14.3" font-family="Times New Roman,serif" font-size="14.00">v_proj_15.f1</text>
</g>
<!-- 18&#45;&gt;19 -->
<g id="edge30" class="edge">
<title>18&#45;&gt;19</title>
<path fill="none" stroke="black" d="M678,-72.81C678,-65.23 678,-56.1 678,-47.54"/>
<polygon fill="black" stroke="black" points="681.5,-47.54 678,-37.54 674.5,-47.54 681.5,-47.54"/>
</g>
<!-- 20&#45;&gt;7 -->
<g id="edge31" class="edge">
<title>20&#45;&gt;7</title>
<path fill="none" stroke="black" d="M321.23,-494C317.68,-483.43 315.69,-470.16 323,-461 334.31,-446.81 375.28,-437.91 411.98,-432.64"/>
<polygon fill="black" stroke="black" points="412.26,-436.13 421.69,-431.32 411.31,-429.19 412.26,-436.13"/>
<text text-anchor="middle" x="392.5" y="-464.8" font-family="Times New Roman,serif" font-size="14.00">SELECT{v_proj_15.f0}</text>
</g>
<!-- 24 -->
<g id="node25" class="node">
<title>24</title>
<ellipse fill="none" stroke="black" cx="231" cy="-599" rx="27" ry="18"/>
<text text-anchor="middle" x="231" y="-595.3" font-family="Times New Roman,serif" font-size="14.00">l_7</text>
</g>
<!-- 20&#45;&gt;24 -->
<g id="edge32" class="edge">
<title>20&#45;&gt;24</title>
<path fill="none" stroke="black" d="M275.47,-519.2C239.67,-524.58 197.16,-533.77 186,-548 176.98,-559.5 187.52,-571.7 200.67,-581.17"/>
<polygon fill="black" stroke="black" points="198.42,-583.88 208.7,-586.42 202.25,-578.02 198.42,-583.88"/>
<text text-anchor="middle" x="248.5" y="-551.8" font-family="Times New Roman,serif" font-size="14.00">groupBy{key&#45;&gt;result}</text>
</g>
<!-- 21 -->
<g id="node22" class="node">
<title>21</title>
<ellipse fill="none" stroke="black" cx="672" cy="-338" rx="48.19" ry="18"/>
<text text-anchor="middle" x="672" y="-334.3" font-family="Times New Roman,serif" font-size="14.00">v_proj_15</text>
</g>
<!-- 21&#45;&gt;10 -->
<g id="edge33" class="edge">
<title>21&#45;&gt;10</title>
<path fill="none" stroke="black" d="M668.1,-356.27C664.1,-378.86 660.94,-418.44 681,-443 727.67,-500.15 819.92,-510.76 872.3,-511.88"/>
<polygon fill="black" stroke="black" points="872.23,-515.38 882.26,-511.97 872.29,-508.38 872.23,-515.38"/>
<text text-anchor="middle" x="714.5" y="-421.3" font-family="Times New Roman,serif" font-size="14.00">FROM (&lt;&#45;)</text>
</g>
<!-- 21&#45;&gt;14 -->
<g id="edge34" class="edge">
<title>21&#45;&gt;14</title>
<path fill="none" stroke="black" d="M697.09,-322.39C722.54,-307.57 761.89,-284.66 788.74,-269.03"/>
<polygon fill="black" stroke="black" points="790.17,-272.25 797.06,-264.19 786.65,-266.2 790.17,-272.25"/>
<text text-anchor="middle" x="787.5" y="-290.8" font-family="Times New Roman,serif" font-size="14.00">FROM (&lt;&#45;)</text>
</g>
<!-- 23 -->
<g id="node24" class="node">
<title>23</title>
<ellipse fill="none" stroke="black" cx="623" cy="-251" rx="46.29" ry="18"/>
<text text-anchor="middle" x="623" y="-247.3" font-family="Times New Roman,serif" font-size="14.00">l_7.$inner</text>
</g>
<!-- 21&#45;&gt;23 -->
<g id="edge35" class="edge">
<title>21&#45;&gt;23</title>
<path fill="none" stroke="black" d="M663.75,-320.1C658.83,-310.3 652.33,-297.8 646,-287 644.34,-284.18 642.56,-281.27 640.74,-278.38"/>
<polygon fill="black" stroke="black" points="643.78,-276.63 635.4,-270.14 637.9,-280.44 643.78,-276.63"/>
<text text-anchor="middle" x="688.5" y="-290.8" font-family="Times New Roman,serif" font-size="14.00">FROM (&#45;&gt;)</text>
</g>
<!-- 22&#45;&gt;21 -->
<g id="edge36" class="edge">
<title>22&#45;&gt;21</title>
<path fill="none" stroke="black" d="M785.82,-408.61C763.41,-394.9 730.43,-374.74 705.74,-359.63"/>
<polygon fill="black" stroke="black" points="707.7,-356.73 697.34,-354.5 704.05,-362.7 707.7,-356.73"/>
</g>
<!-- 23&#45;&gt;21 -->
<g id="edge37" class="edge">
<title>23&#45;&gt;21</title>
<path fill="none" stroke="black" d="M595.04,-265.83C579.73,-275.33 565.59,-288.61 575,-302 584.49,-315.51 599.72,-323.83 615.34,-328.94"/>
<polygon fill="black" stroke="black" points="614.11,-332.23 624.69,-331.58 616.02,-325.5 614.11,-332.23"/>
<text text-anchor="middle" x="608.5" y="-290.8" font-family="Times New Roman,serif" font-size="14.00">FROM (&lt;&#45;)</text>
</g>
<!-- 24&#45;&gt;20 -->
<g id="edge38" class="edge">
<title>24&#45;&gt;20</title>
<path fill="none" stroke="black" d="M256.46,-592.5C273.93,-587.52 296.5,-578.5 311,-563 316.67,-556.93 320.58,-548.95 323.26,-541.15"/>
<polygon fill="black" stroke="black" points="326.63,-542.12 325.97,-531.55 319.89,-540.22 326.63,-542.12"/>
<text text-anchor="middle" x="383.5" y="-551.8" font-family="Times New Roman,serif" font-size="14.00">groupBy{result&#45;&gt;key}</text>
</g>
<!-- 24&#45;&gt;28 -->
<g id="edge39" class="edge">
<title>24&#45;&gt;28</title>
<path fill="none" stroke="black" d="M230.89,-617.48C230.72,-647.14 230.37,-707.54 230.16,-743.42"/>
<polygon fill="black" stroke="black" points="226.67,-743.03 230.11,-753.05 233.66,-743.07 226.67,-743.03"/>
</g>
<!-- 27 -->
<g id="node28" class="node">
<title>27</title>
<ellipse fill="none" stroke="black" cx="287" cy="-686" rx="29.5" ry="18"/>
<text text-anchor="middle" x="287" y="-682.3" font-family="Times New Roman,serif" font-size="14.00">Root</text>
</g>
<!-- 27&#45;&gt;2 -->
<g id="edge40" class="edge">
<title>27&#45;&gt;2</title>
<path fill="none" stroke="black" d="M293.18,-703.72C300.08,-725.37 308.37,-763.54 293,-791 276.86,-819.81 242.98,-837.89 216.87,-848.1"/>
<polygon fill="black" stroke="black" points="215.83,-844.75 207.65,-851.48 218.24,-851.32 215.83,-844.75"/>
<text text-anchor="middle" x="335.5" y="-769.3" font-family="Times New Roman,serif" font-size="14.00">FROM (&lt;&#45;)</text>
</g>
<!-- 27&#45;&gt;24 -->
<g id="edge41" class="edge">
<title>27&#45;&gt;24</title>
<path fill="none" stroke="black" d="M276.46,-669.01C268.33,-656.66 256.92,-639.35 247.56,-625.15"/>
<polygon fill="black" stroke="black" points="250.74,-623.61 242.32,-617.18 244.89,-627.46 250.74,-623.61"/>
<text text-anchor="middle" x="296.5" y="-638.8" font-family="Times New Roman,serif" font-size="14.00">FROM (&lt;&#45;)</text>
</g>
<!-- 28&#45;&gt;27 -->
<g id="edge42" class="edge">
<title>28&#45;&gt;27</title>
<path fill="none" stroke="black" d="M241.26,-755.21C249.4,-743.06 260.56,-726.43 269.81,-712.62"/>
<polygon fill="black" stroke="black" points="272.64,-714.69 275.3,-704.44 266.83,-710.79 272.64,-714.69"/>
</g>
</g>
</svg>
