<?xml version="1.0" encoding="UTF-8" standalone="no"?>
<!DOCTYPE svg PUBLIC "-//W3C//DTD SVG 1.1//EN"
 "http://www.w3.org/Graphics/SVG/1.1/DTD/svg11.dtd">
<!-- Generated by graphviz version 7.1.0 (20230121.1956)
 -->
<!-- Pages: 1 -->
<svg width="876pt" height="1088pt"
 viewBox="0.00 0.00 876.00 1088.00" xmlns="http://www.w3.org/2000/svg" xmlns:xlink="http://www.w3.org/1999/xlink">
<g id="graph0" class="graph" transform="scale(1 1) rotate(0) translate(4 1084)">
<polygon fill="white" stroke="none" points="-4,4 -4,-1084 872,-1084 872,4 -4,4"/>
<!-- 0 -->
<g id="node1" class="node">
<title>0</title>
<ellipse fill="none" stroke="black" cx="331" cy="-1062" rx="31.7" ry="18"/>
<text text-anchor="middle" x="331" y="-1058.3" font-family="Times New Roman,serif" font-size="14.00">l_7.f0</text>
</g>
<!-- 1 -->
<g id="node2" class="node">
<title>1</title>
<ellipse fill="none" stroke="black" cx="260" cy="-975" rx="31.7" ry="18"/>
<text text-anchor="middle" x="260" y="-971.3" font-family="Times New Roman,serif" font-size="14.00">l_4.f2</text>
</g>
<!-- 0&#45;&gt;1 -->
<g id="edge1" class="edge">
<title>0&#45;&gt;1</title>
<path fill="none" stroke="black" d="M301.29,-1055.47C284.62,-1050.68 265.18,-1041.9 255,-1026 250.87,-1019.56 250.16,-1011.67 251,-1004.07"/>
<polygon fill="black" stroke="black" points="254.39,-1004.98 252.94,-994.49 247.53,-1003.59 254.39,-1004.98"/>
<text text-anchor="middle" x="270.5" y="-1014.8" font-family="Times New Roman,serif" font-size="14.00">(0, 1)</text>
</g>
<!-- 7 -->
<g id="node8" class="node">
<title>7</title>
<ellipse fill="none" stroke="black" cx="347" cy="-453" rx="55.79" ry="18"/>
<text text-anchor="middle" x="347" y="-449.3" font-family="Times New Roman,serif" font-size="14.00">l_7.$inner.f0</text>
</g>
<!-- 0&#45;&gt;7 -->
<g id="edge2" class="edge">
<title>0&#45;&gt;7</title>
<path fill="none" stroke="black" d="M338.4,-1044.11C345.12,-1027.21 354,-1000.31 354,-976 354,-976 354,-976 354,-539 354,-520.06 352.25,-498.82 350.5,-482.31"/>
<polygon fill="black" stroke="black" points="354.02,-482.27 349.42,-472.73 347.06,-483.06 354.02,-482.27"/>
<text text-anchor="middle" x="369.5" y="-753.8" font-family="Times New Roman,serif" font-size="14.00">(0, 7)</text>
</g>
<!-- 1&#45;&gt;0 -->
<g id="edge3" class="edge">
<title>1&#45;&gt;0</title>
<path fill="none" stroke="black" d="M273.18,-991.78C283.76,-1004.45 298.81,-1022.46 310.9,-1036.94"/>
<polygon fill="black" stroke="black" points="307.91,-1038.82 317,-1044.25 313.28,-1034.33 307.91,-1038.82"/>
<text text-anchor="middle" x="315.5" y="-1014.8" font-family="Times New Roman,serif" font-size="14.00">(1, 0)</text>
</g>
<!-- 2 -->
<g id="node3" class="node">
<title>2</title>
<ellipse fill="none" stroke="black" cx="209" cy="-888" rx="27" ry="18"/>
<text text-anchor="middle" x="209" y="-884.3" font-family="Times New Roman,serif" font-size="14.00">l_4</text>
</g>
<!-- 1&#45;&gt;2 -->
<g id="edge4" class="edge">
<title>1&#45;&gt;2</title>
<path fill="none" stroke="black" d="M234.66,-963.86C224.11,-958.22 212.95,-950.07 207,-939 203.53,-932.55 202.56,-924.93 202.82,-917.6"/>
<polygon fill="black" stroke="black" points="206.3,-918.02 203.96,-907.69 199.34,-917.23 206.3,-918.02"/>
<text text-anchor="middle" x="222.5" y="-927.8" font-family="Times New Roman,serif" font-size="14.00">(1, 2)</text>
</g>
<!-- 2&#45;&gt;1 -->
<g id="edge5" class="edge">
<title>2&#45;&gt;1</title>
<path fill="none" stroke="black" d="M222.67,-903.64C227.87,-909.66 233.6,-916.88 238,-924 242.35,-931.05 246.29,-939.11 249.6,-946.67"/>
<polygon fill="black" stroke="black" points="246.33,-947.91 253.38,-955.81 252.79,-945.23 246.33,-947.91"/>
<text text-anchor="middle" x="261.5" y="-927.8" font-family="Times New Roman,serif" font-size="14.00">(2, 1)</text>
</g>
<!-- 3 -->
<g id="node4" class="node">
<title>3</title>
<ellipse fill="none" stroke="black" cx="39" cy="-801" rx="31.7" ry="18"/>
<text text-anchor="middle" x="39" y="-797.3" font-family="Times New Roman,serif" font-size="14.00">l_4.f1</text>
</g>
<!-- 2&#45;&gt;3 -->
<g id="edge6" class="edge">
<title>2&#45;&gt;3</title>
<path fill="none" stroke="black" d="M185.81,-878.29C168.74,-871.65 145.09,-861.97 125,-852 106.04,-842.59 85.52,-830.73 69.28,-820.92"/>
<polygon fill="black" stroke="black" points="71.43,-818.13 61.07,-815.91 67.78,-824.11 71.43,-818.13"/>
<text text-anchor="middle" x="140.5" y="-840.8" font-family="Times New Roman,serif" font-size="14.00">(2, 3)</text>
</g>
<!-- 4 -->
<g id="node5" class="node">
<title>4</title>
<ellipse fill="none" stroke="black" cx="121" cy="-801" rx="31.7" ry="18"/>
<text text-anchor="middle" x="121" y="-797.3" font-family="Times New Roman,serif" font-size="14.00">l_4.f0</text>
</g>
<!-- 2&#45;&gt;4 -->
<g id="edge7" class="edge">
<title>2&#45;&gt;4</title>
<path fill="none" stroke="black" d="M194.07,-872.58C180.58,-859.55 160.49,-840.15 144.79,-824.99"/>
<polygon fill="black" stroke="black" points="147.3,-822.54 137.68,-818.11 142.44,-827.58 147.3,-822.54"/>
<text text-anchor="middle" x="186.5" y="-840.8" font-family="Times New Roman,serif" font-size="14.00">(2, 4)</text>
</g>
<!-- 28 -->
<g id="node29" class="node">
<title>28</title>
<ellipse fill="none" stroke="black" cx="211" cy="-801" rx="40.09" ry="18"/>
<text text-anchor="middle" x="211" y="-797.3" font-family="Times New Roman,serif" font-size="14.00">&lt;AND&gt;</text>
</g>
<!-- 2&#45;&gt;28 -->
<g id="edge8" class="edge">
<title>2&#45;&gt;28</title>
<path fill="none" stroke="black" d="M209.4,-869.8C209.67,-858.58 210.02,-843.67 210.32,-830.69"/>
<polygon fill="black" stroke="black" points="213.81,-831.06 210.55,-820.98 206.82,-830.9 213.81,-831.06"/>
<text text-anchor="middle" x="229.5" y="-840.8" font-family="Times New Roman,serif" font-size="14.00">(2, 28)</text>
</g>
<!-- 26 -->
<g id="node27" class="node">
<title>26</title>
<ellipse fill="none" stroke="black" cx="39" cy="-714" rx="38.99" ry="18"/>
<text text-anchor="middle" x="39" y="-710.3" font-family="Times New Roman,serif" font-size="14.00">Root.f0</text>
</g>
<!-- 3&#45;&gt;26 -->
<g id="edge9" class="edge">
<title>3&#45;&gt;26</title>
<path fill="none" stroke="black" d="M39,-782.8C39,-771.58 39,-756.67 39,-743.69"/>
<polygon fill="black" stroke="black" points="42.5,-743.98 39,-733.98 35.5,-743.98 42.5,-743.98"/>
<text text-anchor="middle" x="57.5" y="-753.8" font-family="Times New Roman,serif" font-size="14.00">(3, 26)</text>
</g>
<!-- 5 -->
<g id="node6" class="node">
<title>5</title>
<ellipse fill="none" stroke="black" cx="546" cy="-1062" rx="31.7" ry="18"/>
<text text-anchor="middle" x="546" y="-1058.3" font-family="Times New Roman,serif" font-size="14.00">l_7.f1</text>
</g>
<!-- 6 -->
<g id="node7" class="node">
<title>6</title>
<ellipse fill="none" stroke="black" cx="492" cy="-975" rx="55.79" ry="18"/>
<text text-anchor="middle" x="492" y="-971.3" font-family="Times New Roman,serif" font-size="14.00">l_7.$inner.f1</text>
</g>
<!-- 5&#45;&gt;6 -->
<g id="edge10" class="edge">
<title>5&#45;&gt;6</title>
<path fill="none" stroke="black" d="M520.77,-1050.8C510.24,-1045.15 499.06,-1037.01 493,-1026 489.46,-1019.59 488.15,-1011.98 487.98,-1004.65"/>
<polygon fill="black" stroke="black" points="491.47,-1004.9 488.45,-994.74 484.48,-1004.56 491.47,-1004.9"/>
<text text-anchor="middle" x="508.5" y="-1014.8" font-family="Times New Roman,serif" font-size="14.00">(5, 6)</text>
</g>
<!-- 25 -->
<g id="node26" class="node">
<title>25</title>
<ellipse fill="none" stroke="black" cx="605" cy="-975" rx="38.99" ry="18"/>
<text text-anchor="middle" x="605" y="-971.3" font-family="Times New Roman,serif" font-size="14.00">Root.f1</text>
</g>
<!-- 5&#45;&gt;25 -->
<g id="edge11" class="edge">
<title>5&#45;&gt;25</title>
<path fill="none" stroke="black" d="M557.09,-1045.01C565.56,-1032.82 577.38,-1015.78 587.17,-1001.69"/>
<polygon fill="black" stroke="black" points="589.86,-1003.95 592.68,-993.74 584.11,-999.96 589.86,-1003.95"/>
<text text-anchor="middle" x="597.5" y="-1014.8" font-family="Times New Roman,serif" font-size="14.00">(5, 25)</text>
</g>
<!-- 6&#45;&gt;5 -->
<g id="edge12" class="edge">
<title>6&#45;&gt;5</title>
<path fill="none" stroke="black" d="M509.15,-992.52C514.33,-998.07 519.77,-1004.52 524,-1011 528.52,-1017.94 532.52,-1025.96 535.82,-1033.53"/>
<polygon fill="black" stroke="black" points="532.55,-1034.76 539.57,-1042.69 539.02,-1032.11 532.55,-1034.76"/>
<text text-anchor="middle" x="547.5" y="-1014.8" font-family="Times New Roman,serif" font-size="14.00">(6, 5)</text>
</g>
<!-- 7&#45;&gt;0 -->
<g id="edge13" class="edge">
<title>7&#45;&gt;0</title>
<path fill="none" stroke="black" d="M367.99,-470.11C385.63,-485.62 408,-510.85 408,-539 408,-976 408,-976 408,-976 408,-1004.49 383.94,-1027.69 362.72,-1042.61"/>
<polygon fill="black" stroke="black" points="360.93,-1039.59 354.53,-1048.03 364.8,-1045.43 360.93,-1039.59"/>
<text text-anchor="middle" x="423.5" y="-753.8" font-family="Times New Roman,serif" font-size="14.00">(7, 0)</text>
</g>
<!-- 8 -->
<g id="node9" class="node">
<title>8</title>
<ellipse fill="none" stroke="black" cx="694" cy="-627" rx="34.39" ry="18"/>
<text text-anchor="middle" x="694" y="-623.3" font-family="Times New Roman,serif" font-size="14.00">p_9.f2</text>
</g>
<!-- 9 -->
<g id="node10" class="node">
<title>9</title>
<ellipse fill="none" stroke="black" cx="783" cy="-192" rx="36.29" ry="18"/>
<text text-anchor="middle" x="783" y="-188.3" font-family="Times New Roman,serif" font-size="14.00">l_14.f0</text>
</g>
<!-- 8&#45;&gt;9 -->
<g id="edge14" class="edge">
<title>8&#45;&gt;9</title>
<path fill="none" stroke="black" d="M719.74,-614.78C746.02,-601.37 783,-576.25 783,-541 783,-541 783,-541 783,-278 783,-259.12 783,-237.88 783,-221.35"/>
<polygon fill="black" stroke="black" points="786.5,-221.77 783,-211.77 779.5,-221.77 786.5,-221.77"/>
<text text-anchor="middle" x="798.5" y="-405.8" font-family="Times New Roman,serif" font-size="14.00">(8, 9)</text>
</g>
<!-- 10 -->
<g id="node11" class="node">
<title>10</title>
<ellipse fill="none" stroke="black" cx="634" cy="-540" rx="27" ry="18"/>
<text text-anchor="middle" x="634" y="-536.3" font-family="Times New Roman,serif" font-size="14.00">p_9</text>
</g>
<!-- 8&#45;&gt;10 -->
<g id="edge15" class="edge">
<title>8&#45;&gt;10</title>
<path fill="none" stroke="black" d="M665.68,-616.32C654.06,-610.81 641.77,-602.63 635,-591 631.31,-584.68 629.94,-577.1 629.77,-569.77"/>
<polygon fill="black" stroke="black" points="633.26,-570 630.28,-559.84 626.27,-569.65 633.26,-570"/>
<text text-anchor="middle" x="653.5" y="-579.8" font-family="Times New Roman,serif" font-size="14.00">(8, 10)</text>
</g>
<!-- 20 -->
<g id="node21" class="node">
<title>20</title>
<ellipse fill="none" stroke="black" cx="268" cy="-540" rx="57.69" ry="18"/>
<text text-anchor="middle" x="268" y="-536.3" font-family="Times New Roman,serif" font-size="14.00">v_proj_15.f0</text>
</g>
<!-- 8&#45;&gt;20 -->
<g id="edge16" class="edge">
<title>8&#45;&gt;20</title>
<path fill="none" stroke="black" d="M662.33,-619.68C591.32,-605.51 418.46,-571.02 327,-552.77"/>
<polygon fill="black" stroke="black" points="327.7,-549.34 317.21,-550.82 326.33,-556.21 327.7,-549.34"/>
<text text-anchor="middle" x="525.5" y="-579.8" font-family="Times New Roman,serif" font-size="14.00">(8, 20)</text>
</g>
<!-- 9&#45;&gt;8 -->
<g id="edge17" class="edge">
<title>9&#45;&gt;8</title>
<path fill="none" stroke="black" d="M800.08,-208.09C815.9,-223.82 837,-250.03 837,-278 837,-541 837,-541 837,-541 837,-587.69 779.96,-609.31 737.93,-618.9"/>
<polygon fill="black" stroke="black" points="737.35,-615.45 728.28,-620.94 738.79,-622.3 737.35,-615.45"/>
<text text-anchor="middle" x="852.5" y="-405.8" font-family="Times New Roman,serif" font-size="14.00">(9, 8)</text>
</g>
<!-- 10&#45;&gt;8 -->
<g id="edge18" class="edge">
<title>10&#45;&gt;8</title>
<path fill="none" stroke="black" d="M651.38,-554.33C658.44,-560.38 666.26,-567.97 672,-576 676.81,-582.74 680.9,-590.7 684.2,-598.26"/>
<polygon fill="black" stroke="black" points="680.93,-599.5 687.9,-607.47 687.42,-596.89 680.93,-599.5"/>
<text text-anchor="middle" x="698.5" y="-579.8" font-family="Times New Roman,serif" font-size="14.00">(10, 8)</text>
</g>
<!-- 11 -->
<g id="node12" class="node">
<title>11</title>
<ellipse fill="none" stroke="black" cx="634" cy="-453" rx="34.39" ry="18"/>
<text text-anchor="middle" x="634" y="-449.3" font-family="Times New Roman,serif" font-size="14.00">p_9.f1</text>
</g>
<!-- 10&#45;&gt;11 -->
<g id="edge19" class="edge">
<title>10&#45;&gt;11</title>
<path fill="none" stroke="black" d="M634,-521.8C634,-510.58 634,-495.67 634,-482.69"/>
<polygon fill="black" stroke="black" points="637.5,-482.98 634,-472.98 630.5,-482.98 637.5,-482.98"/>
<text text-anchor="middle" x="656" y="-492.8" font-family="Times New Roman,serif" font-size="14.00">(10, 11)</text>
</g>
<!-- 12 -->
<g id="node13" class="node">
<title>12</title>
<ellipse fill="none" stroke="black" cx="721" cy="-453" rx="34.39" ry="18"/>
<text text-anchor="middle" x="721" y="-449.3" font-family="Times New Roman,serif" font-size="14.00">p_9.f0</text>
</g>
<!-- 10&#45;&gt;12 -->
<g id="edge20" class="edge">
<title>10&#45;&gt;12</title>
<path fill="none" stroke="black" d="M653.18,-526.83C662.37,-520.56 673.25,-512.46 682,-504 689.61,-496.62 697.02,-487.72 703.3,-479.48"/>
<polygon fill="black" stroke="black" points="706.08,-481.6 709.19,-471.47 700.45,-477.45 706.08,-481.6"/>
<text text-anchor="middle" x="716" y="-492.8" font-family="Times New Roman,serif" font-size="14.00">(10, 12)</text>
</g>
<!-- 22 -->
<g id="node23" class="node">
<title>22</title>
<ellipse fill="none" stroke="black" cx="541" cy="-453" rx="40.09" ry="18"/>
<text text-anchor="middle" x="541" y="-449.3" font-family="Times New Roman,serif" font-size="14.00">&lt;AND&gt;</text>
</g>
<!-- 10&#45;&gt;22 -->
<g id="edge21" class="edge">
<title>10&#45;&gt;22</title>
<path fill="none" stroke="black" d="M615.53,-526.88C606.31,-520.5 595.19,-512.29 586,-504 577.46,-496.3 568.84,-487.13 561.46,-478.76"/>
<polygon fill="black" stroke="black" points="564.16,-476.54 554.99,-471.25 558.86,-481.11 564.16,-476.54"/>
<text text-anchor="middle" x="608" y="-492.8" font-family="Times New Roman,serif" font-size="14.00">(10, 22)</text>
</g>
<!-- 13 -->
<g id="node14" class="node">
<title>13</title>
<ellipse fill="none" stroke="black" cx="567" cy="-192" rx="36.29" ry="18"/>
<text text-anchor="middle" x="567" y="-188.3" font-family="Times New Roman,serif" font-size="14.00">l_14.f4</text>
</g>
<!-- 14 -->
<g id="node15" class="node">
<title>14</title>
<ellipse fill="none" stroke="black" cx="566" cy="-279" rx="27" ry="18"/>
<text text-anchor="middle" x="566" y="-275.3" font-family="Times New Roman,serif" font-size="14.00">l_14</text>
</g>
<!-- 14&#45;&gt;9 -->
<g id="edge22" class="edge">
<title>14&#45;&gt;9</title>
<path fill="none" stroke="black" d="M590.78,-271.11C613.28,-264.62 647.25,-254.24 676,-243 700.55,-233.4 727.44,-220.83 748.11,-210.7"/>
<polygon fill="black" stroke="black" points="749.55,-213.89 756.96,-206.32 746.44,-207.62 749.55,-213.89"/>
<text text-anchor="middle" x="726.5" y="-231.8" font-family="Times New Roman,serif" font-size="14.00">(14, 9)</text>
</g>
<!-- 14&#45;&gt;13 -->
<g id="edge23" class="edge">
<title>14&#45;&gt;13</title>
<path fill="none" stroke="black" d="M566.2,-260.8C566.33,-249.58 566.51,-234.67 566.66,-221.69"/>
<polygon fill="black" stroke="black" points="570.16,-222.02 566.77,-211.98 563.16,-221.94 570.16,-222.02"/>
<text text-anchor="middle" x="588" y="-231.8" font-family="Times New Roman,serif" font-size="14.00">(14, 13)</text>
</g>
<!-- 15 -->
<g id="node16" class="node">
<title>15</title>
<ellipse fill="none" stroke="black" cx="658" cy="-192" rx="36.29" ry="18"/>
<text text-anchor="middle" x="658" y="-188.3" font-family="Times New Roman,serif" font-size="14.00">l_14.f3</text>
</g>
<!-- 14&#45;&gt;15 -->
<g id="edge24" class="edge">
<title>14&#45;&gt;15</title>
<path fill="none" stroke="black" d="M584.5,-265.92C593.74,-259.55 604.85,-251.34 614,-243 622.4,-235.33 630.85,-226.17 638.06,-217.8"/>
<polygon fill="black" stroke="black" points="640.62,-220.2 644.37,-210.29 635.26,-215.69 640.62,-220.2"/>
<text text-anchor="middle" x="650" y="-231.8" font-family="Times New Roman,serif" font-size="14.00">(14, 15)</text>
</g>
<!-- 16 -->
<g id="node17" class="node">
<title>16</title>
<ellipse fill="none" stroke="black" cx="385" cy="-192" rx="36.29" ry="18"/>
<text text-anchor="middle" x="385" y="-188.3" font-family="Times New Roman,serif" font-size="14.00">l_14.f2</text>
</g>
<!-- 14&#45;&gt;16 -->
<g id="edge25" class="edge">
<title>14&#45;&gt;16</title>
<path fill="none" stroke="black" d="M540.5,-272.1C517.87,-266.34 484.26,-256.47 457,-243 441.3,-235.24 425.16,-224.36 412.16,-214.72"/>
<polygon fill="black" stroke="black" points="414.58,-212.17 404.5,-208.91 410.35,-217.74 414.58,-212.17"/>
<text text-anchor="middle" x="479" y="-231.8" font-family="Times New Roman,serif" font-size="14.00">(14, 16)</text>
</g>
<!-- 17 -->
<g id="node18" class="node">
<title>17</title>
<ellipse fill="none" stroke="black" cx="476" cy="-192" rx="36.29" ry="18"/>
<text text-anchor="middle" x="476" y="-188.3" font-family="Times New Roman,serif" font-size="14.00">l_14.f1</text>
</g>
<!-- 14&#45;&gt;17 -->
<g id="edge26" class="edge">
<title>14&#45;&gt;17</title>
<path fill="none" stroke="black" d="M546.94,-265.69C537.79,-259.39 526.89,-251.31 518,-243 509.93,-235.47 501.92,-226.43 495.1,-218.13"/>
<polygon fill="black" stroke="black" points="497.87,-215.99 488.9,-210.36 492.4,-220.36 497.87,-215.99"/>
<text text-anchor="middle" x="540" y="-231.8" font-family="Times New Roman,serif" font-size="14.00">(14, 17)</text>
</g>
<!-- 14&#45;&gt;22 -->
<g id="edge27" class="edge">
<title>14&#45;&gt;22</title>
<path fill="none" stroke="black" d="M563.49,-297.23C559.2,-326.78 550.39,-387.41 545.16,-423.38"/>
<polygon fill="black" stroke="black" points="541.72,-422.66 543.75,-433.06 548.65,-423.67 541.72,-422.66"/>
<text text-anchor="middle" x="577" y="-362.3" font-family="Times New Roman,serif" font-size="14.00">(14, 22)</text>
</g>
<!-- 18 -->
<g id="node19" class="node">
<title>18</title>
<ellipse fill="none" stroke="black" cx="430" cy="-105" rx="40.09" ry="18"/>
<text text-anchor="middle" x="430" y="-101.3" font-family="Times New Roman,serif" font-size="14.00">&lt;AND&gt;</text>
</g>
<!-- 16&#45;&gt;18 -->
<g id="edge28" class="edge">
<title>16&#45;&gt;18</title>
<path fill="none" stroke="black" d="M390.21,-173.82C393.54,-163.93 398.29,-151.43 404,-141 405.78,-137.75 407.83,-134.46 409.98,-131.26"/>
<polygon fill="black" stroke="black" points="412.69,-133.49 415.7,-123.33 407.01,-129.4 412.69,-133.49"/>
<text text-anchor="middle" x="426" y="-144.8" font-family="Times New Roman,serif" font-size="14.00">(16, 18)</text>
</g>
<!-- 17&#45;&gt;18 -->
<g id="edge29" class="edge">
<title>17&#45;&gt;18</title>
<path fill="none" stroke="black" d="M466.91,-174.21C460.48,-162.33 451.73,-146.17 444.37,-132.56"/>
<polygon fill="black" stroke="black" points="447.62,-131.22 439.79,-124.09 441.47,-134.55 447.62,-131.22"/>
<text text-anchor="middle" x="478" y="-144.8" font-family="Times New Roman,serif" font-size="14.00">(17, 18)</text>
</g>
<!-- 19 -->
<g id="node20" class="node">
<title>19</title>
<ellipse fill="none" stroke="black" cx="430" cy="-18" rx="57.69" ry="18"/>
<text text-anchor="middle" x="430" y="-14.3" font-family="Times New Roman,serif" font-size="14.00">v_proj_15.f1</text>
</g>
<!-- 18&#45;&gt;19 -->
<g id="edge30" class="edge">
<title>18&#45;&gt;19</title>
<path fill="none" stroke="black" d="M430,-86.8C430,-75.58 430,-60.67 430,-47.69"/>
<polygon fill="black" stroke="black" points="433.5,-47.98 430,-37.98 426.5,-47.98 433.5,-47.98"/>
<text text-anchor="middle" x="452" y="-57.8" font-family="Times New Roman,serif" font-size="14.00">(18, 19)</text>
</g>
<!-- 20&#45;&gt;7 -->
<g id="edge31" class="edge">
<title>20&#45;&gt;7</title>
<path fill="none" stroke="black" d="M278.23,-521.88C284.68,-511.77 293.56,-499.03 303,-489 306.91,-484.84 311.33,-480.75 315.82,-476.93"/>
<polygon fill="black" stroke="black" points="317.71,-479.9 323.27,-470.88 313.3,-474.47 317.71,-479.9"/>
<text text-anchor="middle" x="321.5" y="-492.8" font-family="Times New Roman,serif" font-size="14.00">(20, 7)</text>
</g>
<!-- 24 -->
<g id="node25" class="node">
<title>24</title>
<ellipse fill="none" stroke="black" cx="235" cy="-627" rx="27" ry="18"/>
<text text-anchor="middle" x="235" y="-623.3" font-family="Times New Roman,serif" font-size="14.00">l_7</text>
</g>
<!-- 20&#45;&gt;24 -->
<g id="edge32" class="edge">
<title>20&#45;&gt;24</title>
<path fill="none" stroke="black" d="M235.7,-555.22C227.47,-560.49 219.65,-567.36 215,-576 210.76,-583.87 212.48,-592.84 216.3,-600.99"/>
<polygon fill="black" stroke="black" points="213.15,-602.53 221.2,-609.41 219.2,-599.01 213.15,-602.53"/>
<text text-anchor="middle" x="237" y="-579.8" font-family="Times New Roman,serif" font-size="14.00">(20, 24)</text>
</g>
<!-- 21 -->
<g id="node22" class="node">
<title>21</title>
<ellipse fill="none" stroke="black" cx="440" cy="-366" rx="48.19" ry="18"/>
<text text-anchor="middle" x="440" y="-362.3" font-family="Times New Roman,serif" font-size="14.00">v_proj_15</text>
</g>
<!-- 21&#45;&gt;10 -->
<g id="edge33" class="edge">
<title>21&#45;&gt;10</title>
<path fill="none" stroke="black" d="M436.14,-384.06C432.15,-406.42 428.85,-445.74 448,-471 482.9,-517.06 552.16,-531.95 595.61,-536.75"/>
<polygon fill="black" stroke="black" points="595.07,-540.21 605.36,-537.68 595.74,-533.24 595.07,-540.21"/>
<text text-anchor="middle" x="470" y="-449.3" font-family="Times New Roman,serif" font-size="14.00">(21, 10)</text>
</g>
<!-- 21&#45;&gt;14 -->
<g id="edge34" class="edge">
<title>21&#45;&gt;14</title>
<path fill="none" stroke="black" d="M460.18,-349.41C473.53,-339.29 491.54,-325.98 508,-315 516.95,-309.02 526.92,-302.85 536.03,-297.37"/>
<polygon fill="black" stroke="black" points="537.74,-300.43 544.55,-292.32 534.16,-294.41 537.74,-300.43"/>
<text text-anchor="middle" x="530" y="-318.8" font-family="Times New Roman,serif" font-size="14.00">(21, 14)</text>
</g>
<!-- 23 -->
<g id="node24" class="node">
<title>23</title>
<ellipse fill="none" stroke="black" cx="407" cy="-279" rx="46.29" ry="18"/>
<text text-anchor="middle" x="407" y="-275.3" font-family="Times New Roman,serif" font-size="14.00">l_7.$inner</text>
</g>
<!-- 21&#45;&gt;23 -->
<g id="edge35" class="edge">
<title>21&#45;&gt;23</title>
<path fill="none" stroke="black" d="M433.32,-347.8C428.85,-336.28 422.86,-320.86 417.72,-307.63"/>
<polygon fill="black" stroke="black" points="421.09,-306.64 414.21,-298.59 414.57,-309.18 421.09,-306.64"/>
<text text-anchor="middle" x="448" y="-318.8" font-family="Times New Roman,serif" font-size="14.00">(21, 23)</text>
</g>
<!-- 22&#45;&gt;21 -->
<g id="edge36" class="edge">
<title>22&#45;&gt;21</title>
<path fill="none" stroke="black" d="M522.94,-436.8C507.57,-423.87 485.26,-405.09 467.65,-390.27"/>
<polygon fill="black" stroke="black" points="469.99,-387.67 460.08,-383.9 465.48,-393.02 469.99,-387.67"/>
<text text-anchor="middle" x="519" y="-405.8" font-family="Times New Roman,serif" font-size="14.00">(22, 21)</text>
</g>
<!-- 23&#45;&gt;21 -->
<g id="edge37" class="edge">
<title>23&#45;&gt;21</title>
<path fill="none" stroke="black" d="M386.29,-295.55C375.91,-305.31 366.92,-318.24 374,-330 378.65,-337.74 385.65,-343.85 393.38,-348.66"/>
<polygon fill="black" stroke="black" points="391.64,-351.7 402.11,-353.35 394.96,-345.53 391.64,-351.7"/>
<text text-anchor="middle" x="396" y="-318.8" font-family="Times New Roman,serif" font-size="14.00">(23, 21)</text>
</g>
<!-- 24&#45;&gt;20 -->
<g id="edge38" class="edge">
<title>24&#45;&gt;20</title>
<path fill="none" stroke="black" d="M247.5,-610.79C251.75,-604.92 256.14,-597.95 259,-591 261.78,-584.23 263.7,-576.59 265.03,-569.36"/>
<polygon fill="black" stroke="black" points="268.46,-570.07 266.49,-559.66 261.54,-569.03 268.46,-570.07"/>
<text text-anchor="middle" x="286" y="-579.8" font-family="Times New Roman,serif" font-size="14.00">(24, 20)</text>
</g>
<!-- 24&#45;&gt;28 -->
<g id="edge39" class="edge">
<title>24&#45;&gt;28</title>
<path fill="none" stroke="black" d="M225.28,-644.08C217.8,-657.44 208.07,-677.24 204,-696 198.51,-721.25 201.32,-750.68 204.88,-771.78"/>
<polygon fill="black" stroke="black" points="201.4,-772.18 206.67,-781.37 208.28,-770.89 201.4,-772.18"/>
<text text-anchor="middle" x="226" y="-710.3" font-family="Times New Roman,serif" font-size="14.00">(24, 28)</text>
</g>
<!-- 27 -->
<g id="node28" class="node">
<title>27</title>
<ellipse fill="none" stroke="black" cx="286" cy="-714" rx="29.5" ry="18"/>
<text text-anchor="middle" x="286" y="-710.3" font-family="Times New Roman,serif" font-size="14.00">Root</text>
</g>
<!-- 27&#45;&gt;2 -->
<g id="edge40" class="edge">
<title>27&#45;&gt;2</title>
<path fill="none" stroke="black" d="M285.17,-732.38C283.15,-759.81 276.16,-813.93 252,-852 248.14,-858.08 242.86,-863.6 237.33,-868.36"/>
<polygon fill="black" stroke="black" points="235.5,-865.34 229.78,-874.26 239.81,-870.86 235.5,-865.34"/>
<text text-anchor="middle" x="296.5" y="-797.3" font-family="Times New Roman,serif" font-size="14.00">(27, 2)</text>
</g>
<!-- 27&#45;&gt;24 -->
<g id="edge41" class="edge">
<title>27&#45;&gt;24</title>
<path fill="none" stroke="black" d="M276.16,-696.61C268.85,-684.42 258.73,-667.55 250.35,-653.59"/>
<polygon fill="black" stroke="black" points="253.55,-652.12 245.41,-645.35 247.55,-655.72 253.55,-652.12"/>
<text text-anchor="middle" x="286" y="-666.8" font-family="Times New Roman,serif" font-size="14.00">(27, 24)</text>
</g>
<!-- 28&#45;&gt;27 -->
<g id="edge42" class="edge">
<title>28&#45;&gt;27</title>
<path fill="none" stroke="black" d="M214.17,-782.82C216.77,-772.45 221.31,-759.45 229,-750 235.32,-742.23 243.85,-735.72 252.38,-730.51"/>
<polygon fill="black" stroke="black" points="253.93,-733.66 260.95,-725.72 250.51,-727.54 253.93,-733.66"/>
<text text-anchor="middle" x="251" y="-753.8" font-family="Times New Roman,serif" font-size="14.00">(28, 27)</text>
</g>
</g>
</svg>
