<?xml version="1.0" encoding="UTF-8" standalone="no"?>
<!DOCTYPE svg PUBLIC "-//W3C//DTD SVG 1.1//EN"
 "http://www.w3.org/Graphics/SVG/1.1/DTD/svg11.dtd">
<!-- Generated by graphviz version 2.44.1 (20200629.0846)
 -->
<!-- Pages: 1 -->
<svg width="1314pt" height="1060pt"
 viewBox="0.00 0.00 1314.00 1060.00" xmlns="http://www.w3.org/2000/svg" xmlns:xlink="http://www.w3.org/1999/xlink">
<g id="graph0" class="graph" transform="scale(1 1) rotate(0) translate(4 1056)">
<polygon fill="white" stroke="transparent" points="-4,4 -4,-1056 1310,-1056 1310,4 -4,4"/>
<!-- 0 -->
<g id="node1" class="node">
<title>0</title>
<ellipse fill="none" stroke="black" cx="420" cy="-1034" rx="31.7" ry="18"/>
<text text-anchor="middle" x="420" y="-1030.3" font-family="Times New Roman,serif" font-size="14.00">l_7.f0</text>
</g>
<!-- 1 -->
<g id="node2" class="node">
<title>1</title>
<ellipse fill="none" stroke="black" cx="259" cy="-947" rx="31.7" ry="18"/>
<text text-anchor="middle" x="259" y="-943.3" font-family="Times New Roman,serif" font-size="14.00">l_4.f2</text>
</g>
<!-- 0&#45;&gt;1 -->
<g id="edge1" class="edge">
<title>0&#45;&gt;1</title>
<path fill="none" stroke="black" d="M388.31,-1031.33C342.89,-1028.2 262.77,-1019.68 245,-998 239.27,-991.01 240.17,-981.83 243.4,-973.24"/>
<polygon fill="black" stroke="black" points="246.68,-974.48 247.79,-963.94 240.35,-971.49 246.68,-974.48"/>
<text text-anchor="middle" x="293.5" y="-986.8" font-family="Times New Roman,serif" font-size="14.00">WHERE{=} (&#45;&gt;)</text>
</g>
<!-- 7 -->
<g id="node8" class="node">
<title>7</title>
<ellipse fill="none" stroke="black" cx="476" cy="-425" rx="55.79" ry="18"/>
<text text-anchor="middle" x="476" y="-421.3" font-family="Times New Roman,serif" font-size="14.00">l_7.$inner.f0</text>
</g>
<!-- 0&#45;&gt;7 -->
<g id="edge2" class="edge">
<title>0&#45;&gt;7</title>
<path fill="none" stroke="black" d="M440.29,-1020.06C448.08,-1014.18 456.43,-1006.61 462,-998 474.54,-978.63 476,-971.08 476,-948 476,-948 476,-948 476,-511 476,-491.75 476,-470.05 476,-453.4"/>
<polygon fill="black" stroke="black" points="479.5,-453.26 476,-443.26 472.5,-453.26 479.5,-453.26"/>
<text text-anchor="middle" x="550" y="-725.8" font-family="Times New Roman,serif" font-size="14.00">GroupBy{inner loop} (&#45;&gt;)</text>
</g>
<!-- 1&#45;&gt;0 -->
<g id="edge3" class="edge">
<title>1&#45;&gt;0</title>
<path fill="none" stroke="black" d="M284.97,-957.57C301.62,-964.04 323.49,-973.17 342,-983 352.77,-988.73 354.74,-991.39 365,-998 373.47,-1003.46 382.71,-1009.36 391.15,-1014.73"/>
<polygon fill="black" stroke="black" points="389.27,-1017.68 399.59,-1020.09 393.02,-1011.77 389.27,-1017.68"/>
<text text-anchor="middle" x="413.5" y="-986.8" font-family="Times New Roman,serif" font-size="14.00">WHERE{=} (&lt;&#45;)</text>
</g>
<!-- 2 -->
<g id="node3" class="node">
<title>2</title>
<ellipse fill="none" stroke="black" cx="182" cy="-860" rx="27" ry="18"/>
<text text-anchor="middle" x="182" y="-856.3" font-family="Times New Roman,serif" font-size="14.00">l_4</text>
</g>
<!-- 1&#45;&gt;2 -->
<g id="edge4" class="edge">
<title>1&#45;&gt;2</title>
<path fill="none" stroke="black" d="M228.37,-941.83C209.54,-937.51 186.83,-928.75 175,-911 170.42,-904.13 170.15,-895.54 171.65,-887.43"/>
<polygon fill="black" stroke="black" points="175.09,-888.15 174.3,-877.58 168.33,-886.33 175.09,-888.15"/>
<text text-anchor="middle" x="207" y="-899.8" font-family="Times New Roman,serif" font-size="14.00">Table{FD}</text>
</g>
<!-- 2&#45;&gt;1 -->
<g id="edge5" class="edge">
<title>2&#45;&gt;1</title>
<path fill="none" stroke="black" d="M204.15,-870.4C215.83,-876.3 229.64,-884.9 239,-896 244.65,-902.71 248.85,-911.22 251.89,-919.31"/>
<polygon fill="black" stroke="black" points="248.58,-920.43 255.06,-928.81 255.22,-918.22 248.58,-920.43"/>
<text text-anchor="middle" x="284" y="-899.8" font-family="Times New Roman,serif" font-size="14.00">Table{field}</text>
</g>
<!-- 3 -->
<g id="node4" class="node">
<title>3</title>
<ellipse fill="none" stroke="black" cx="39" cy="-773" rx="31.7" ry="18"/>
<text text-anchor="middle" x="39" y="-769.3" font-family="Times New Roman,serif" font-size="14.00">l_4.f1</text>
</g>
<!-- 2&#45;&gt;3 -->
<g id="edge6" class="edge">
<title>2&#45;&gt;3</title>
<path fill="none" stroke="black" d="M154.99,-859.1C125.91,-857.71 80.18,-850.97 53,-824 46.97,-818.02 43.48,-809.67 41.48,-801.5"/>
<polygon fill="black" stroke="black" points="44.88,-800.67 39.66,-791.45 38,-801.91 44.88,-800.67"/>
<text text-anchor="middle" x="88" y="-812.8" font-family="Times New Roman,serif" font-size="14.00">Table{field}</text>
</g>
<!-- 4 -->
<g id="node5" class="node">
<title>4</title>
<ellipse fill="none" stroke="black" cx="126" cy="-773" rx="31.7" ry="18"/>
<text text-anchor="middle" x="126" y="-769.3" font-family="Times New Roman,serif" font-size="14.00">l_4.f0</text>
</g>
<!-- 2&#45;&gt;4 -->
<g id="edge7" class="edge">
<title>2&#45;&gt;4</title>
<path fill="none" stroke="black" d="M160.19,-849.1C149.93,-843.28 138.53,-834.91 132,-824 127.98,-817.3 126.04,-809.18 125.21,-801.45"/>
<polygon fill="black" stroke="black" points="128.7,-801.13 124.68,-791.33 121.71,-801.5 128.7,-801.13"/>
<text text-anchor="middle" x="167" y="-812.8" font-family="Times New Roman,serif" font-size="14.00">Table{field}</text>
</g>
<!-- 28 -->
<g id="node29" class="node">
<title>28</title>
<ellipse fill="none" stroke="black" cx="230" cy="-773" rx="53.89" ry="18"/>
<text text-anchor="middle" x="230" y="-769.3" font-family="Times New Roman,serif" font-size="14.00">FROM (&#45;&gt;)</text>
</g>
<!-- 2&#45;&gt;28 -->
<g id="edge8" class="edge">
<title>2&#45;&gt;28</title>
<path fill="none" stroke="black" d="M193.52,-843.3C197.66,-837.38 202.23,-830.51 206,-824 210.38,-816.41 214.68,-807.9 218.4,-800.08"/>
<polygon fill="black" stroke="black" points="221.59,-801.54 222.62,-791 215.24,-798.59 221.59,-801.54"/>
</g>
<!-- 26 -->
<g id="node27" class="node">
<title>26</title>
<ellipse fill="none" stroke="black" cx="39" cy="-686" rx="38.99" ry="18"/>
<text text-anchor="middle" x="39" y="-682.3" font-family="Times New Roman,serif" font-size="14.00">Root.f0</text>
</g>
<!-- 3&#45;&gt;26 -->
<g id="edge9" class="edge">
<title>3&#45;&gt;26</title>
<path fill="none" stroke="black" d="M39,-754.8C39,-743.16 39,-727.55 39,-714.24"/>
<polygon fill="black" stroke="black" points="42.5,-714.18 39,-704.18 35.5,-714.18 42.5,-714.18"/>
<text text-anchor="middle" x="88" y="-725.8" font-family="Times New Roman,serif" font-size="14.00">SELECT{l_4.f1}</text>
</g>
<!-- 5 -->
<g id="node6" class="node">
<title>5</title>
<ellipse fill="none" stroke="black" cx="851" cy="-1034" rx="31.7" ry="18"/>
<text text-anchor="middle" x="851" y="-1030.3" font-family="Times New Roman,serif" font-size="14.00">l_7.f1</text>
</g>
<!-- 6 -->
<g id="node7" class="node">
<title>6</title>
<ellipse fill="none" stroke="black" cx="791" cy="-947" rx="55.79" ry="18"/>
<text text-anchor="middle" x="791" y="-943.3" font-family="Times New Roman,serif" font-size="14.00">l_7.$inner.f1</text>
</g>
<!-- 5&#45;&gt;6 -->
<g id="edge10" class="edge">
<title>5&#45;&gt;6</title>
<path fill="none" stroke="black" d="M819.47,-1031.14C775.22,-1027.78 698.13,-1019.02 681,-998 662.96,-975.87 695.18,-963.14 729.32,-956.07"/>
<polygon fill="black" stroke="black" points="730.27,-959.45 739.44,-954.14 728.96,-952.58 730.27,-959.45"/>
<text text-anchor="middle" x="755" y="-986.8" font-family="Times New Roman,serif" font-size="14.00">GroupBy{inner loop} (&#45;&gt;)</text>
</g>
<!-- 25 -->
<g id="node26" class="node">
<title>25</title>
<ellipse fill="none" stroke="black" cx="1022" cy="-947" rx="38.99" ry="18"/>
<text text-anchor="middle" x="1022" y="-943.3" font-family="Times New Roman,serif" font-size="14.00">Root.f1</text>
</g>
<!-- 5&#45;&gt;25 -->
<g id="edge11" class="edge">
<title>5&#45;&gt;25</title>
<path fill="none" stroke="black" d="M882.77,-1031.61C912.91,-1028.87 958.19,-1020.9 990,-998 998.56,-991.83 1005.4,-982.6 1010.51,-973.73"/>
<polygon fill="black" stroke="black" points="1013.67,-975.26 1015.22,-964.78 1007.47,-972 1013.67,-975.26"/>
<text text-anchor="middle" x="1053" y="-986.8" font-family="Times New Roman,serif" font-size="14.00">SELECT{l_7.f1}</text>
</g>
<!-- 6&#45;&gt;5 -->
<g id="edge12" class="edge">
<title>6&#45;&gt;5</title>
<path fill="none" stroke="black" d="M811.5,-964.07C817.67,-969.6 824.09,-976.14 829,-983 834.09,-990.13 838.38,-998.63 841.77,-1006.58"/>
<polygon fill="black" stroke="black" points="838.52,-1007.87 845.46,-1015.88 845.02,-1005.29 838.52,-1007.87"/>
<text text-anchor="middle" x="912" y="-986.8" font-family="Times New Roman,serif" font-size="14.00">GroupBy{inner loop} (&lt;&#45;)</text>
</g>
<!-- 7&#45;&gt;0 -->
<g id="edge13" class="edge">
<title>7&#45;&gt;0</title>
<path fill="none" stroke="black" d="M529.63,-430.45C579.78,-437.89 647,-457.79 647,-511 647,-948 647,-948 647,-948 647,-987.35 525.88,-1014.56 460.58,-1026.38"/>
<polygon fill="black" stroke="black" points="459.85,-1022.95 450.61,-1028.14 461.07,-1029.85 459.85,-1022.95"/>
<text text-anchor="middle" x="721" y="-725.8" font-family="Times New Roman,serif" font-size="14.00">GroupBy{inner loop} (&lt;&#45;)</text>
</g>
<!-- 8 -->
<g id="node9" class="node">
<title>8</title>
<ellipse fill="none" stroke="black" cx="998" cy="-599" rx="34.39" ry="18"/>
<text text-anchor="middle" x="998" y="-595.3" font-family="Times New Roman,serif" font-size="14.00">p_9.f2</text>
</g>
<!-- 9 -->
<g id="node10" class="node">
<title>9</title>
<ellipse fill="none" stroke="black" cx="1089" cy="-164" rx="36.29" ry="18"/>
<text text-anchor="middle" x="1089" y="-160.3" font-family="Times New Roman,serif" font-size="14.00">l_14.f0</text>
</g>
<!-- 8&#45;&gt;9 -->
<g id="edge14" class="edge">
<title>8&#45;&gt;9</title>
<path fill="none" stroke="black" d="M1024.32,-586.94C1051.19,-573.67 1089,-548.67 1089,-513 1089,-513 1089,-513 1089,-250 1089,-230.75 1089,-209.05 1089,-192.4"/>
<polygon fill="black" stroke="black" points="1092.5,-192.26 1089,-182.26 1085.5,-192.26 1092.5,-192.26"/>
<text text-anchor="middle" x="1137.5" y="-377.8" font-family="Times New Roman,serif" font-size="14.00">WHERE{=} (&#45;&gt;)</text>
</g>
<!-- 10 -->
<g id="node11" class="node">
<title>10</title>
<ellipse fill="none" stroke="black" cx="911" cy="-512" rx="27" ry="18"/>
<text text-anchor="middle" x="911" y="-508.3" font-family="Times New Roman,serif" font-size="14.00">p_9</text>
</g>
<!-- 8&#45;&gt;10 -->
<g id="edge15" class="edge">
<title>8&#45;&gt;10</title>
<path fill="none" stroke="black" d="M965.06,-593.56C946.2,-589.16 923.96,-580.4 912,-563 907.48,-556.43 906.08,-548.15 906.13,-540.22"/>
<polygon fill="black" stroke="black" points="909.63,-540.42 906.9,-530.18 902.65,-539.88 909.63,-540.42"/>
<text text-anchor="middle" x="944" y="-551.8" font-family="Times New Roman,serif" font-size="14.00">Table{FD}</text>
</g>
<!-- 20 -->
<g id="node21" class="node">
<title>20</title>
<ellipse fill="none" stroke="black" cx="329" cy="-512" rx="57.69" ry="18"/>
<text text-anchor="middle" x="329" y="-508.3" font-family="Times New Roman,serif" font-size="14.00">v_proj_15.f0</text>
</g>
<!-- 8&#45;&gt;20 -->
<g id="edge16" class="edge">
<title>8&#45;&gt;20</title>
<path fill="none" stroke="black" d="M964.82,-593.78C859.36,-580.39 530.62,-538.62 391.83,-520.98"/>
<polygon fill="black" stroke="black" points="392.14,-517.49 381.78,-519.71 391.25,-524.44 392.14,-517.49"/>
<text text-anchor="middle" x="755.5" y="-551.8" font-family="Times New Roman,serif" font-size="14.00">SELECT{p_9.f2}</text>
</g>
<!-- 9&#45;&gt;8 -->
<g id="edge17" class="edge">
<title>9&#45;&gt;8</title>
<path fill="none" stroke="black" d="M1120.84,-172.73C1156.39,-183.49 1209,-206.73 1209,-250 1209,-513 1209,-513 1209,-513 1209,-583.93 1105.13,-597.17 1043.15,-598.76"/>
<polygon fill="black" stroke="black" points="1042.78,-595.26 1032.84,-598.93 1042.89,-602.26 1042.78,-595.26"/>
<text text-anchor="middle" x="1257.5" y="-377.8" font-family="Times New Roman,serif" font-size="14.00">WHERE{=} (&lt;&#45;)</text>
</g>
<!-- 10&#45;&gt;8 -->
<g id="edge18" class="edge">
<title>10&#45;&gt;8</title>
<path fill="none" stroke="black" d="M934.52,-521.19C948.11,-526.93 964.69,-535.76 976,-548 982.13,-554.64 986.74,-563.26 990.12,-571.47"/>
<polygon fill="black" stroke="black" points="986.92,-572.93 993.64,-581.12 993.5,-570.52 986.92,-572.93"/>
<text text-anchor="middle" x="1021" y="-551.8" font-family="Times New Roman,serif" font-size="14.00">Table{field}</text>
</g>
<!-- 11 -->
<g id="node12" class="node">
<title>11</title>
<ellipse fill="none" stroke="black" cx="917" cy="-425" rx="34.39" ry="18"/>
<text text-anchor="middle" x="917" y="-421.3" font-family="Times New Roman,serif" font-size="14.00">p_9.f1</text>
</g>
<!-- 10&#45;&gt;11 -->
<g id="edge19" class="edge">
<title>10&#45;&gt;11</title>
<path fill="none" stroke="black" d="M910.82,-493.85C910.86,-484.19 911.11,-471.9 912,-461 912.2,-458.43 912.48,-455.76 912.79,-453.1"/>
<polygon fill="black" stroke="black" points="916.28,-453.42 914.14,-443.04 909.34,-452.49 916.28,-453.42"/>
<text text-anchor="middle" x="947" y="-464.8" font-family="Times New Roman,serif" font-size="14.00">Table{field}</text>
</g>
<!-- 12 -->
<g id="node13" class="node">
<title>12</title>
<ellipse fill="none" stroke="black" cx="1004" cy="-425" rx="34.39" ry="18"/>
<text text-anchor="middle" x="1004" y="-421.3" font-family="Times New Roman,serif" font-size="14.00">p_9.f0</text>
</g>
<!-- 10&#45;&gt;12 -->
<g id="edge20" class="edge">
<title>10&#45;&gt;12</title>
<path fill="none" stroke="black" d="M935.33,-503.79C950.41,-498.27 969.26,-489.3 982,-476 988.24,-469.47 992.89,-460.88 996.26,-452.66"/>
<polygon fill="black" stroke="black" points="999.65,-453.58 999.76,-442.99 993.06,-451.2 999.65,-453.58"/>
<text text-anchor="middle" x="1027" y="-464.8" font-family="Times New Roman,serif" font-size="14.00">Table{field}</text>
</g>
<!-- 22 -->
<g id="node23" class="node">
<title>22</title>
<ellipse fill="none" stroke="black" cx="811" cy="-425" rx="53.89" ry="18"/>
<text text-anchor="middle" x="811" y="-421.3" font-family="Times New Roman,serif" font-size="14.00">FROM (&#45;&gt;)</text>
</g>
<!-- 10&#45;&gt;22 -->
<g id="edge21" class="edge">
<title>10&#45;&gt;22</title>
<path fill="none" stroke="black" d="M894.93,-497.34C879.51,-484.24 855.95,-464.21 837.71,-448.7"/>
<polygon fill="black" stroke="black" points="839.64,-445.75 829.75,-441.94 835.1,-451.08 839.64,-445.75"/>
</g>
<!-- 13 -->
<g id="node14" class="node">
<title>13</title>
<ellipse fill="none" stroke="black" cx="818" cy="-164" rx="36.29" ry="18"/>
<text text-anchor="middle" x="818" y="-160.3" font-family="Times New Roman,serif" font-size="14.00">l_14.f4</text>
</g>
<!-- 14 -->
<g id="node15" class="node">
<title>14</title>
<ellipse fill="none" stroke="black" cx="818" cy="-251" rx="27" ry="18"/>
<text text-anchor="middle" x="818" y="-247.3" font-family="Times New Roman,serif" font-size="14.00">l_14</text>
</g>
<!-- 14&#45;&gt;9 -->
<g id="edge22" class="edge">
<title>14&#45;&gt;9</title>
<path fill="none" stroke="black" d="M844.18,-246.02C875.59,-240.82 929.58,-230.5 974,-215 988.45,-209.96 991.04,-206.28 1005,-200 1020.36,-193.09 1037.5,-185.86 1052.27,-179.78"/>
<polygon fill="black" stroke="black" points="1053.66,-182.99 1061.59,-175.97 1051.01,-176.52 1053.66,-182.99"/>
<text text-anchor="middle" x="1040" y="-203.8" font-family="Times New Roman,serif" font-size="14.00">Table{field}</text>
</g>
<!-- 14&#45;&gt;13 -->
<g id="edge23" class="edge">
<title>14&#45;&gt;13</title>
<path fill="none" stroke="black" d="M818,-232.8C818,-221.16 818,-205.55 818,-192.24"/>
<polygon fill="black" stroke="black" points="821.5,-192.18 818,-182.18 814.5,-192.18 821.5,-192.18"/>
<text text-anchor="middle" x="853" y="-203.8" font-family="Times New Roman,serif" font-size="14.00">Table{field}</text>
</g>
<!-- 15 -->
<g id="node16" class="node">
<title>15</title>
<ellipse fill="none" stroke="black" cx="911" cy="-164" rx="36.29" ry="18"/>
<text text-anchor="middle" x="911" y="-160.3" font-family="Times New Roman,serif" font-size="14.00">l_14.f3</text>
</g>
<!-- 14&#45;&gt;15 -->
<g id="edge24" class="edge">
<title>14&#45;&gt;15</title>
<path fill="none" stroke="black" d="M842.33,-242.79C857.41,-237.27 876.26,-228.3 889,-215 895.24,-208.47 899.89,-199.88 903.26,-191.66"/>
<polygon fill="black" stroke="black" points="906.65,-192.58 906.76,-181.99 900.06,-190.2 906.65,-192.58"/>
<text text-anchor="middle" x="935" y="-203.8" font-family="Times New Roman,serif" font-size="14.00">Table{field}</text>
</g>
<!-- 16 -->
<g id="node17" class="node">
<title>16</title>
<ellipse fill="none" stroke="black" cx="633" cy="-164" rx="36.29" ry="18"/>
<text text-anchor="middle" x="633" y="-160.3" font-family="Times New Roman,serif" font-size="14.00">l_14.f2</text>
</g>
<!-- 14&#45;&gt;16 -->
<g id="edge25" class="edge">
<title>14&#45;&gt;16</title>
<path fill="none" stroke="black" d="M790.82,-250.43C757.16,-249.62 699.53,-243.68 661,-215 652.91,-208.98 646.84,-199.89 642.45,-191.11"/>
<polygon fill="black" stroke="black" points="645.6,-189.57 638.34,-181.85 639.2,-192.41 645.6,-189.57"/>
<text text-anchor="middle" x="696" y="-203.8" font-family="Times New Roman,serif" font-size="14.00">Table{field}</text>
</g>
<!-- 17 -->
<g id="node18" class="node">
<title>17</title>
<ellipse fill="none" stroke="black" cx="724" cy="-164" rx="36.29" ry="18"/>
<text text-anchor="middle" x="724" y="-160.3" font-family="Times New Roman,serif" font-size="14.00">l_14.f1</text>
</g>
<!-- 14&#45;&gt;17 -->
<g id="edge26" class="edge">
<title>14&#45;&gt;17</title>
<path fill="none" stroke="black" d="M793.19,-243.42C777.3,-238.08 757.24,-229.08 744,-215 737.89,-208.51 733.56,-199.93 730.53,-191.71"/>
<polygon fill="black" stroke="black" points="733.82,-190.49 727.45,-182.03 727.15,-192.62 733.82,-190.49"/>
<text text-anchor="middle" x="779" y="-203.8" font-family="Times New Roman,serif" font-size="14.00">Table{field}</text>
</g>
<!-- 14&#45;&gt;22 -->
<g id="edge27" class="edge">
<title>14&#45;&gt;22</title>
<path fill="none" stroke="black" d="M822.09,-268.99C823.28,-274.68 824.41,-281.08 825,-287 828.76,-325.02 822.37,-368.95 817.04,-396.6"/>
<polygon fill="black" stroke="black" points="813.55,-396.21 815,-406.7 820.41,-397.59 813.55,-396.21"/>
</g>
<!-- 18 -->
<g id="node19" class="node">
<title>18</title>
<ellipse fill="none" stroke="black" cx="678" cy="-91" rx="113.18" ry="18"/>
<text text-anchor="middle" x="678" y="-87.3" font-family="Times New Roman,serif" font-size="14.00">SELECT{l_14.f1 * l_14.f2}</text>
</g>
<!-- 16&#45;&gt;18 -->
<g id="edge28" class="edge">
<title>16&#45;&gt;18</title>
<path fill="none" stroke="black" d="M643.43,-146.53C648.79,-138.09 655.43,-127.61 661.46,-118.09"/>
<polygon fill="black" stroke="black" points="664.59,-119.69 666.99,-109.37 658.68,-115.94 664.59,-119.69"/>
</g>
<!-- 17&#45;&gt;18 -->
<g id="edge29" class="edge">
<title>17&#45;&gt;18</title>
<path fill="none" stroke="black" d="M713.33,-146.53C707.8,-138 700.92,-127.39 694.71,-117.8"/>
<polygon fill="black" stroke="black" points="697.62,-115.86 689.25,-109.37 691.75,-119.66 697.62,-115.86"/>
</g>
<!-- 19 -->
<g id="node20" class="node">
<title>19</title>
<ellipse fill="none" stroke="black" cx="678" cy="-18" rx="57.69" ry="18"/>
<text text-anchor="middle" x="678" y="-14.3" font-family="Times New Roman,serif" font-size="14.00">v_proj_15.f1</text>
</g>
<!-- 18&#45;&gt;19 -->
<g id="edge30" class="edge">
<title>18&#45;&gt;19</title>
<path fill="none" stroke="black" d="M678,-72.81C678,-64.79 678,-55.05 678,-46.07"/>
<polygon fill="black" stroke="black" points="681.5,-46.03 678,-36.03 674.5,-46.03 681.5,-46.03"/>
</g>
<!-- 20&#45;&gt;7 -->
<g id="edge31" class="edge">
<title>20&#45;&gt;7</title>
<path fill="none" stroke="black" d="M321.23,-494C317.68,-483.43 315.69,-470.16 323,-461 334.41,-446.68 375.99,-437.75 412.93,-432.5"/>
<polygon fill="black" stroke="black" points="413.75,-435.92 423.19,-431.11 412.82,-428.98 413.75,-435.92"/>
<text text-anchor="middle" x="392.5" y="-464.8" font-family="Times New Roman,serif" font-size="14.00">SELECT{v_proj_15.f0}</text>
</g>
<!-- 24 -->
<g id="node25" class="node">
<title>24</title>
<ellipse fill="none" stroke="black" cx="231" cy="-599" rx="27" ry="18"/>
<text text-anchor="middle" x="231" y="-595.3" font-family="Times New Roman,serif" font-size="14.00">l_7</text>
</g>
<!-- 20&#45;&gt;24 -->
<g id="edge32" class="edge">
<title>20&#45;&gt;24</title>
<path fill="none" stroke="black" d="M275.85,-519.15C239.97,-524.52 197.2,-533.72 186,-548 176.74,-559.79 188.08,-572.33 201.69,-581.9"/>
<polygon fill="black" stroke="black" points="199.99,-584.97 210.29,-587.44 203.78,-579.08 199.99,-584.97"/>
<text text-anchor="middle" x="248.5" y="-551.8" font-family="Times New Roman,serif" font-size="14.00">groupBy{key&#45;&gt;result}</text>
</g>
<!-- 21 -->
<g id="node22" class="node">
<title>21</title>
<ellipse fill="none" stroke="black" cx="672" cy="-338" rx="48.19" ry="18"/>
<text text-anchor="middle" x="672" y="-334.3" font-family="Times New Roman,serif" font-size="14.00">v_proj_15</text>
</g>
<!-- 21&#45;&gt;10 -->
<g id="edge33" class="edge">
<title>21&#45;&gt;10</title>
<path fill="none" stroke="black" d="M668.1,-356.27C664.1,-378.86 660.94,-418.44 681,-443 728.06,-500.63 821.48,-510.94 873.61,-511.91"/>
<polygon fill="black" stroke="black" points="873.75,-515.41 883.77,-511.99 873.8,-508.41 873.75,-515.41"/>
<text text-anchor="middle" x="714.5" y="-421.3" font-family="Times New Roman,serif" font-size="14.00">FROM (&lt;&#45;)</text>
</g>
<!-- 21&#45;&gt;14 -->
<g id="edge34" class="edge">
<title>21&#45;&gt;14</title>
<path fill="none" stroke="black" d="M697.09,-322.39C722.77,-307.44 762.59,-284.26 789.45,-268.62"/>
<polygon fill="black" stroke="black" points="791.48,-271.49 798.36,-263.43 787.96,-265.44 791.48,-271.49"/>
<text text-anchor="middle" x="787.5" y="-290.8" font-family="Times New Roman,serif" font-size="14.00">FROM (&lt;&#45;)</text>
</g>
<!-- 23 -->
<g id="node24" class="node">
<title>23</title>
<ellipse fill="none" stroke="black" cx="623" cy="-251" rx="46.29" ry="18"/>
<text text-anchor="middle" x="623" y="-247.3" font-family="Times New Roman,serif" font-size="14.00">l_7.$inner</text>
</g>
<!-- 21&#45;&gt;23 -->
<g id="edge35" class="edge">
<title>21&#45;&gt;23</title>
<path fill="none" stroke="black" d="M663.75,-320.1C658.83,-310.3 652.33,-297.8 646,-287 644.08,-283.73 641.99,-280.35 639.88,-277.03"/>
<polygon fill="black" stroke="black" points="642.73,-274.99 634.35,-268.52 636.86,-278.81 642.73,-274.99"/>
<text text-anchor="middle" x="688.5" y="-290.8" font-family="Times New Roman,serif" font-size="14.00">FROM (&#45;&gt;)</text>
</g>
<!-- 22&#45;&gt;21 -->
<g id="edge36" class="edge">
<title>22&#45;&gt;21</title>
<path fill="none" stroke="black" d="M786.15,-408.8C763.47,-394.94 729.81,-374.35 704.91,-359.13"/>
<polygon fill="black" stroke="black" points="706.52,-356.01 696.17,-353.78 702.87,-361.98 706.52,-356.01"/>
</g>
<!-- 23&#45;&gt;21 -->
<g id="edge37" class="edge">
<title>23&#45;&gt;21</title>
<path fill="none" stroke="black" d="M595.38,-265.62C579.94,-275.14 565.52,-288.51 575,-302 584.71,-315.83 600.45,-324.22 616.45,-329.3"/>
<polygon fill="black" stroke="black" points="615.83,-332.76 626.4,-332.06 617.7,-326.01 615.83,-332.76"/>
<text text-anchor="middle" x="608.5" y="-290.8" font-family="Times New Roman,serif" font-size="14.00">FROM (&lt;&#45;)</text>
</g>
<!-- 24&#45;&gt;20 -->
<g id="edge38" class="edge">
<title>24&#45;&gt;20</title>
<path fill="none" stroke="black" d="M256.46,-592.5C273.93,-587.52 296.5,-578.5 311,-563 317,-556.58 321.03,-548.02 323.72,-539.79"/>
<polygon fill="black" stroke="black" points="327.11,-540.66 326.38,-530.09 320.36,-538.81 327.11,-540.66"/>
<text text-anchor="middle" x="383.5" y="-551.8" font-family="Times New Roman,serif" font-size="14.00">groupBy{result&#45;&gt;key}</text>
</g>
<!-- 24&#45;&gt;28 -->
<g id="edge39" class="edge">
<title>24&#45;&gt;28</title>
<path fill="none" stroke="black" d="M230.9,-617.05C230.72,-646.88 230.36,-708.76 230.16,-744.64"/>
<polygon fill="black" stroke="black" points="226.65,-744.86 230.1,-754.88 233.65,-744.9 226.65,-744.86"/>
</g>
<!-- 27 -->
<g id="node28" class="node">
<title>27</title>
<ellipse fill="none" stroke="black" cx="287" cy="-686" rx="29.5" ry="18"/>
<text text-anchor="middle" x="287" y="-682.3" font-family="Times New Roman,serif" font-size="14.00">Root</text>
</g>
<!-- 27&#45;&gt;2 -->
<g id="edge40" class="edge">
<title>27&#45;&gt;2</title>
<path fill="none" stroke="black" d="M293.18,-703.72C300.08,-725.37 308.37,-763.54 293,-791 276.64,-820.2 242.07,-838.37 215.82,-848.5"/>
<polygon fill="black" stroke="black" points="214.43,-845.29 206.23,-852 216.82,-851.86 214.43,-845.29"/>
<text text-anchor="middle" x="335.5" y="-769.3" font-family="Times New Roman,serif" font-size="14.00">FROM (&lt;&#45;)</text>
</g>
<!-- 27&#45;&gt;24 -->
<g id="edge41" class="edge">
<title>27&#45;&gt;24</title>
<path fill="none" stroke="black" d="M276.46,-669.01C268.17,-656.43 256.48,-638.68 247.03,-624.33"/>
<polygon fill="black" stroke="black" points="249.91,-622.34 241.48,-615.92 244.06,-626.19 249.91,-622.34"/>
<text text-anchor="middle" x="296.5" y="-638.8" font-family="Times New Roman,serif" font-size="14.00">FROM (&lt;&#45;)</text>
</g>
<!-- 28&#45;&gt;27 -->
<g id="edge42" class="edge">
<title>28&#45;&gt;27</title>
<path fill="none" stroke="black" d="M241.26,-755.21C249.61,-742.74 261.14,-725.56 270.53,-711.56"/>
<polygon fill="black" stroke="black" points="273.67,-713.15 276.34,-702.9 267.86,-709.25 273.67,-713.15"/>
</g>
</g>
</svg>
